<?xml version="1.0" encoding="UTF-8"?>
<svg version="1.1" xmlns="http://www.w3.org/2000/svg" width="500" height="500">
<path d="M0 0 C3.01208209 1.50604104 3.08393186 3.6237005 4.13671875 6.7734375 C4.5455127 7.98112793 4.95430664 9.18881836 5.37548828 10.43310547 C5.5894928 11.07616638 5.80349731 11.71922729 6.02398682 12.3817749 C7.13797661 15.72825311 8.27557024 19.06671093 9.41015625 22.40625 C9.6343927 23.06841522 9.85862915 23.73058044 10.08966064 24.41281128 C11.85037308 29.5998077 13.70184175 34.74638929 15.625 39.875 C18.1446974 46.61211549 20.53486726 53.38597133 22.875 60.1875 C25.68306807 68.34305861 28.63203366 76.4339496 31.6875 84.5 C34.471358 91.85331308 37.12195924 99.20678207 39.5546875 106.68359375 C41.40842067 112.29683281 43.40528625 117.86061848 45.39065552 123.42834473 C46.04425104 125.26132169 46.69586024 127.09500654 47.34741211 128.92871094 C47.75999268 130.08274414 48.17257324 131.23677734 48.59765625 132.42578125 C48.96383057 133.45098877 49.33000488 134.47619629 49.70727539 135.5324707 C51.39220023 140.0520151 53.20863168 144.52157921 55 149 C108.13 149.33 161.26 149.66 216 150 C215.67 151.32 215.34 152.64 215 154 C214.34 154 213.68 154 213 154 C213 154.66 213 155.32 213 156 C211.57885742 157.31274414 211.57885742 157.31274414 209.60546875 158.78515625 C208.89712891 159.31560547 208.18878906 159.84605469 207.45898438 160.39257812 C206.70939453 160.94365234 205.95980469 161.49472656 205.1875 162.0625 C204.44951172 162.61744141 203.71152344 163.17238281 202.95117188 163.74414062 C197.4046852 167.86510493 197.4046852 167.86510493 194 169 C194 169.66 194 170.32 194 171 C192.34229079 172.33619621 190.62147984 173.59462139 188.875 174.8125 C185.62368876 177.10975852 182.44104104 179.38594558 179.4375 182 C177 184 177 184 175 184 C175 184.66 175 185.32 175 186 C173.42634453 187.27448143 171.78762868 188.46898948 170.125 189.625 C164.57909205 193.55897311 159.27776372 197.71647749 154 202 C152.20958042 203.43905296 150.41793241 204.87657902 148.625 206.3125 C147.83351563 206.94800781 147.04203125 207.58351562 146.2265625 208.23828125 C145.49179687 208.81964844 144.75703125 209.40101563 144 210 C143.28585937 210.57105469 142.57171875 211.14210938 141.8359375 211.73046875 C140 213 140 213 138 213 C138 213.66 138 214.32 138 215 C136.26451831 216.44526736 134.46024037 217.8087222 132.625 219.125 C131.62726563 219.84945312 130.62953125 220.57390625 129.6015625 221.3203125 C127 223 127 223 125 223 C125 223.66 125 224.32 125 225 C123.36303711 226.46508789 123.36303711 226.46508789 121.08984375 228.16015625 C119.85596924 229.09239014 119.85596924 229.09239014 118.59716797 230.04345703 C117.31156982 231.0119458 117.31156982 231.0119458 116 232 C114.41463759 233.24446591 112.83253854 234.49310155 111.25390625 235.74609375 C109.69010417 236.9765625 108.12630208 238.20703125 106.5625 239.4375 C105.76134766 240.07365234 104.96019531 240.70980469 104.13476562 241.36523438 C103.36970703 241.96529297 102.60464844 242.56535156 101.81640625 243.18359375 C101.13006104 243.72556396 100.44371582 244.26753418 99.73657227 244.82592773 C98 246 98 246 96 246 C96 246.66 96 247.32 96 248 C94.03852126 249.38938077 92.03833424 250.7260411 90 252 C93.82637508 268.5138293 99.1654145 284.6105485 104.38952637 300.72238159 C107.75092591 311.08998547 111.06144558 321.47223896 114.3125 331.875 C114.52577942 332.55719604 114.73905884 333.23939209 114.95880127 333.94226074 C117.24877987 341.2755428 119.50478015 348.61562716 121.625 356 C123.56969035 362.73055951 125.76321049 369.36117169 128 376 C130.43862776 383.24099807 132.8296685 390.48602591 135 397.8125 C135.20753906 398.50537109 135.41507812 399.19824219 135.62890625 399.91210938 C136.44607472 402.72076884 137 405.05656023 137 408 C132.25306464 406.39133545 128.46165677 403.7815723 124.3671875 400.96875 C123.62579025 400.46516968 122.88439301 399.96158936 122.12052917 399.44274902 C120.52923869 398.36118922 118.93939291 397.27750133 117.3508606 396.19189453 C114.01514029 393.91240959 110.67236539 391.64337225 107.32991028 389.3737793 C105.641719 388.22733008 103.95388403 387.08035601 102.2664032 385.93286133 C94.88983899 380.91792759 87.48549641 375.94587579 80.0625 371 C78.97525635 370.27425781 77.8880127 369.54851562 76.76782227 368.80078125 C72.28254142 365.81456257 67.7899788 362.84679669 63.234375 359.96875 C62.5549585 359.53949219 61.87554199 359.11023438 61.17553711 358.66796875 C59.49362978 357.61355325 57.80390438 356.57163346 56.11328125 355.53125 C55.06720703 354.77328125 55.06720703 354.77328125 54 354 C54 353.34 54 352.68 54 352 C53.2575 351.71125 52.515 351.4225 51.75 351.125 C49.43260203 350.17697356 47.22082885 349.15154089 45 348 C45 347.34 45 346.68 45 346 C44.42765625 345.88527344 43.8553125 345.77054687 43.265625 345.65234375 C40.78528344 344.93817644 38.93631303 343.92692128 36.75 342.5625 C36.04359375 342.13066406 35.3371875 341.69882812 34.609375 341.25390625 C34.07828125 340.84011719 33.5471875 340.42632812 33 340 C33 339.34 33 338.68 33 338 C31.02 337.34 29.04 336.68 27 336 C27 335.34 27 334.68 27 334 C26.2783667 333.73501709 25.5567334 333.47003418 24.81323242 333.19702148 C19.93460267 331.12117998 15.70356938 328.00674923 11.3125 325.0625 C10.35021484 324.42892578 9.38792969 323.79535156 8.39648438 323.14257812 C7.47802734 322.52962891 6.55957031 321.91667969 5.61328125 321.28515625 C4.77579346 320.72707275 3.93830566 320.16898926 3.07543945 319.59399414 C1 318 1 318 -1 315 C-1.22705078 311.90551758 -1.22705078 311.90551758 -1.1953125 308.14453125 C-1.1924826 307.48289474 -1.18965271 306.82125824 -1.18673706 306.13957214 C-1.17555918 304.03036263 -1.15045981 301.92158075 -1.125 299.8125 C-1.11496707 298.38086552 -1.10584176 296.94922436 -1.09765625 295.51757812 C-1.07562795 292.01158023 -1.04111485 288.50583187 -1 285 C-0.34 284.67 0.32 284.34 1 284 C2.93359375 284.9765625 2.93359375 284.9765625 5.4375 286.625 C6.41074219 287.26308594 7.38398438 287.90117187 8.38671875 288.55859375 C13.68456539 292.11844178 18.943464 295.73769604 24.18530273 299.37939453 C28.68466961 302.48936734 33.20571996 305.36570977 38 308 C38 308.66 38 309.32 38 310 C39.98 310.66 41.96 311.32 44 312 C44 312.66 44 313.32 44 314 C45.98 314.66 47.96 315.32 50 316 C50 316.66 50 317.32 50 318 C51.28970703 318.35771484 51.28970703 318.35771484 52.60546875 318.72265625 C56.32330385 320.12165749 59.17973768 322.06569545 62.3125 324.4375 C70.30647778 330.32814609 78.62700973 335.66804736 87 341 C84.20956975 330.46837615 81.14126242 320.0878818 77.58764648 309.78637695 C75.53443755 303.78876723 73.77084676 297.73727508 72.05102539 291.63623047 C70.33341654 285.69382253 68.41564801 279.81847402 66.5 273.9375 C65.3653784 270.44263313 64.23312923 266.94710797 63.109375 263.44873047 C62.35758448 261.11162816 61.59688217 258.7773772 60.828125 256.44580078 C60.46203125 255.30997559 60.0959375 254.17415039 59.71875 253.00390625 C59.38810547 251.99271729 59.05746094 250.98152832 58.71679688 249.93969727 C57.95554554 246.81768521 57.75217573 244.20092104 58 241 C59.6796875 239.1015625 59.6796875 239.1015625 61.875 237.625 C62.59429687 237.12226563 63.31359375 236.61953125 64.0546875 236.1015625 C66 235 66 235 68 235 C68 234.34 68 233.68 68 233 C69.66015625 231.6953125 69.66015625 231.6953125 72.0625 230.125 C76.65567167 227.00449778 80.99867234 223.67600624 85.3125 220.1875 C90.28801878 216.17641571 95.26926318 212.1758431 100.3125 208.25 C100.85753174 207.81969482 101.40256348 207.38938965 101.96411133 206.94604492 C105.76807378 204 105.76807378 204 108 204 C108 203.34 108 202.68 108 202 C109.32592773 200.7824707 109.32592773 200.7824707 111.18359375 199.42578125 C111.86019043 198.92594727 112.53678711 198.42611328 113.23388672 197.91113281 C113.9610791 197.38358398 114.68827148 196.85603516 115.4375 196.3125 C116.90810509 195.23122048 118.37816034 194.14919271 119.84765625 193.06640625 C120.56195801 192.54191895 121.27625977 192.01743164 122.01220703 191.47705078 C125.20660812 189.10341696 128.3075491 186.61550073 131.3984375 184.109375 C133 183 133 183 135 183 C135 182.34 135 181.68 135 181 C136.65 180.01 138.3 179.02 140 178 C105.35 177.67 70.7 177.34 35 177 C30.51092612 165.7773153 30.51092612 165.7773153 29.17578125 161.8359375 C28.87406006 160.95405762 28.57233887 160.07217773 28.26147461 159.16357422 C27.94831299 158.24334473 27.63515137 157.32311523 27.3125 156.375 C24.48850085 148.15424803 21.52683575 139.99959034 18.4375 131.875 C15.16779749 123.27107353 12.11785805 114.62174694 9.29467773 105.86083984 C8.12561173 102.25461763 6.9294619 98.71965665 5.40625 95.24609375 C4.16623953 92.38373626 3.21447952 89.62314115 2.375 86.625 C1.67538021 83.53795143 1.67538021 83.53795143 0 81 C-3.31262616 89.22330314 -6.25122017 97.55317328 -9.125 105.9375 C-12.90639897 116.95531426 -16.85715853 127.90340368 -20.890625 138.83056641 C-24.41462472 148.38095406 -27.87245408 157.95347078 -31.27148438 167.54907227 C-31.61759766 168.51901123 -31.96371094 169.4889502 -32.3203125 170.48828125 C-32.62211426 171.33946533 -32.92391602 172.19064941 -33.23486328 173.06762695 C-34 175 -34 175 -35 176 C-36.94558817 176.10760498 -38.8951214 176.14412612 -40.84365845 176.15390015 C-42.11386841 176.16250061 -43.38407837 176.17110107 -44.69277954 176.17996216 C-46.11370809 176.18439786 -47.53463707 176.18869617 -48.95556641 176.19287109 C-50.44187616 176.20076892 -51.92818397 176.20903767 -53.41448975 176.21765137 C-58.31016192 176.24391757 -63.20584283 176.25918768 -68.1015625 176.2734375 C-69.78569927 176.27879607 -71.46983598 176.28417358 -73.15397263 176.28956985 C-80.16079529 176.311209 -87.16761562 176.3299446 -94.17446327 176.34119225 C-104.21955684 176.35742165 -114.26426294 176.39056278 -124.30921042 176.44759309 C-131.36915423 176.48630918 -138.42899451 176.50582714 -145.48904169 176.51111281 C-149.70642856 176.51476521 -153.92340261 176.52677325 -158.14067459 176.55921555 C-162.11181383 176.58932433 -166.08229113 176.59559835 -170.0535202 176.58383179 C-171.50835769 176.58361125 -172.9632261 176.59189972 -174.41795731 176.60948563 C-186.7622687 176.75054468 -186.7622687 176.75054468 -191.42074585 173.58853149 C-194 171 -194 171 -194 169 C-194.58426758 168.72220703 -195.16853516 168.44441406 -195.77050781 168.15820312 C-199.35053239 166.29840937 -202.49990385 163.87766958 -205.75 161.5 C-206.44738281 161.00113281 -207.14476562 160.50226563 -207.86328125 159.98828125 C-208.52199219 159.50746094 -209.18070313 159.02664062 -209.859375 158.53125 C-210.46233398 158.09361328 -211.06529297 157.65597656 -211.68652344 157.20507812 C-212.33669434 156.60856445 -212.33669434 156.60856445 -213 156 C-213 155.34 -213 154.68 -213 154 C-213.66 154 -214.32 154 -215 154 C-215.33 153.01 -215.66 152.02 -216 151 C-215 150 -215 150 -212.3625555 149.87695217 C-211.17620793 149.87787396 -209.98986036 149.87879576 -208.76756287 149.87974548 C-207.78010333 149.87846385 -207.78010333 149.87846385 -206.77269512 149.87715632 C-204.55082894 149.8754997 -202.32903705 149.88102582 -200.10717773 149.88647461 C-198.52084352 149.88675647 -196.93450918 149.88659877 -195.34817505 149.8860321 C-191.02811278 149.88574408 -186.70807803 149.89164163 -182.38802218 149.89860606 C-177.87831685 149.90483875 -173.36861095 149.90544333 -168.85890198 149.90663147 C-160.31305626 149.90974504 -151.76722326 149.91795876 -143.22138315 149.92798096 C-133.49482367 149.93914131 -123.76826358 149.94465235 -114.04169929 149.94967639 C-94.02779241 149.96014136 -74.01389701 149.97774129 -54 150 C-53.68499039 148.72586746 -53.36998077 147.45173492 -53.04542542 146.13899231 C-52.35917066 143.36326906 -51.6238068 140.68140469 -50.58984375 138.01171875 C-50.32655273 137.31852539 -50.06326172 136.62533203 -49.79199219 135.91113281 C-49.51000977 135.17733398 -49.22802734 134.44353516 -48.9375 133.6875 C-45.39421626 124.29607804 -42.22180693 114.79453975 -39.10913086 105.25268555 C-37.28784718 99.70506927 -35.3592769 94.33802874 -33 89 C-32.1025022 86.54683936 -31.22692079 84.09365825 -30.375 81.625 C-27.78230496 74.18874412 -25.11865809 66.77978648 -22.4375 59.375 C-19.52229197 51.31644569 -16.68708197 43.24638155 -14.0703125 35.0859375 C-13 32 -13 32 -11.51953125 28.5625 C-9.98324825 24.96072597 -8.75456337 21.3536179 -7.5625 17.625 C-2.70678021 2.70678021 -2.70678021 2.70678021 0 0 Z " fill="#E4C564" transform="translate(250,46)"/>
<path d="M0 0 C80.19 0.495 80.19 0.495 162 1 C161.67 2.32 161.34 3.64 161 5 C160.34 5 159.68 5 159 5 C159 5.66 159 6.32 159 7 C157.57885742 8.31274414 157.57885742 8.31274414 155.60546875 9.78515625 C154.89712891 10.31560547 154.18878906 10.84605469 153.45898438 11.39257812 C152.70939453 11.94365234 151.95980469 12.49472656 151.1875 13.0625 C150.44951172 13.61744141 149.71152344 14.17238281 148.95117188 14.74414062 C143.4046852 18.86510493 143.4046852 18.86510493 140 20 C140 20.66 140 21.32 140 22 C138.34229079 23.33619621 136.62147984 24.59462139 134.875 25.8125 C131.62368876 28.10975852 128.44104104 30.38594558 125.4375 33 C123 35 123 35 121 35 C121 35.66 121 36.32 121 37 C119.42634453 38.27448143 117.78762868 39.46898948 116.125 40.625 C110.57909205 44.55897311 105.27776372 48.71647749 100 53 C98.20958042 54.43905296 96.41793241 55.87657902 94.625 57.3125 C93.83351563 57.94800781 93.04203125 58.58351562 92.2265625 59.23828125 C91.49179687 59.81964844 90.75703125 60.40101563 90 61 C89.28585937 61.57105469 88.57171875 62.14210938 87.8359375 62.73046875 C86 64 86 64 84 64 C84 64.66 84 65.32 84 66 C82.3203125 67.5078125 82.3203125 67.5078125 80.125 69.125 C79.40570313 69.66382813 78.68640625 70.20265625 77.9453125 70.7578125 C76 72 76 72 74 72 C74 71.01 74 70.02 74 69 C74.66 68.67 75.32 68.34 76 68 C76.72693904 66.02111039 77.39816251 64.02045442 78 62 C79.093125 61.855625 80.18625 61.71125 81.3125 61.5625 C84.93122987 61.11711896 84.93122987 61.11711896 88 60 C88 57.69 88 55.38 88 53 C90.31 53 92.62 53 95 53 C95.4125 52.05125 95.825 51.1025 96.25 50.125 C98 47 98 47 100.0625 46 C102.36351591 45.0801221 102.36351591 45.0801221 103.25 41.875 C103.4975 40.92625 103.745 39.9775 104 39 C105.32 39 106.64 39 108 39 C108.495 38.01 108.495 38.01 109 37 C109.66 37.66 110.32 38.32 111 39 C111.45375 38.34 111.9075 37.68 112.375 37 C112.91125 36.34 113.4475 35.68 114 35 C114.66 35 115.32 35 116 35 C116.20625 34.38125 116.4125 33.7625 116.625 33.125 C118.57208451 30.11586939 120.60056966 29.88385189 124 29 C124.7425 28.896875 125.485 28.79375 126.25 28.6875 C126.8275 28.460625 127.405 28.23375 128 28 C128.67441131 26.3364521 129.3400321 24.66933058 130 23 C130.845625 22.360625 131.69125 21.72125 132.5625 21.0625 C135.2971572 19.15562551 135.2971572 19.15562551 135.8125 15.75 C135.874375 14.8425 135.93625 13.935 136 13 C139 13 142 13 145 13 C144.67 10.69 144.34 8.38 144 6 C144.99 6 145.98 6 147 6 C147 5.34 147 4.68 147 4 C146.03391312 4.00222061 145.06782623 4.00444122 144.07246399 4.00672913 C134.9647301 4.02700732 125.8570008 4.04199471 116.74924946 4.05181217 C112.06695425 4.0570291 107.38467729 4.06410517 102.70239258 4.07543945 C98.18312081 4.08631058 93.66386658 4.09228581 89.14458275 4.09487724 C87.42102978 4.09672386 85.69747776 4.10032983 83.97393227 4.10573006 C81.5585282 4.11299654 79.14319645 4.11398857 76.7277832 4.11352539 C76.01640198 4.11712067 75.30502075 4.12071594 74.57208252 4.12442017 C70.89912545 4.11680669 67.58373007 3.74903611 64 3 C61.85428883 2.88799227 59.70580091 2.82434045 57.55737305 2.79467773 C56.27642258 2.77473251 54.99547211 2.75478729 53.67570496 2.73423767 C52.28771076 2.71725722 50.89971533 2.70037827 49.51171875 2.68359375 C48.08396325 2.66300576 46.65621359 2.64200882 45.22846985 2.62062073 C41.48193105 2.56559047 37.73533899 2.51609773 33.9887085 2.46777344 C30.16104426 2.41741879 26.33345677 2.36180582 22.50585938 2.30664062 C15.00397137 2.19929224 7.50201926 2.09779613 0 2 C0 1.34 0 0.68 0 0 Z " fill="#9A701F" transform="translate(304,195)"/>
<path d="M0 0 C1.18634757 0.00092179 2.37269514 0.00184359 3.59499264 0.00279331 C4.25329899 0.00193889 4.91160535 0.00108446 5.58986038 0.00020415 C7.81172657 -0.00145248 10.03351845 0.00407365 12.25537777 0.00952244 C13.84171198 0.0098043 15.42804632 0.0096466 17.01438046 0.00907993 C21.33444272 0.00879191 25.65447747 0.01468945 29.97453332 0.02165389 C34.48423865 0.02788658 38.99394455 0.02849116 43.50365353 0.0296793 C52.04949925 0.03279286 60.59533224 0.04100659 69.14117235 0.05102879 C78.86773184 0.06218914 88.59429192 0.06770018 98.32085621 0.07272422 C118.33476309 0.08318919 138.3486585 0.10078911 158.3625555 0.12304783 C158.3625555 0.45304783 158.3625555 0.78304783 158.3625555 1.12304783 C129.9825555 1.12304783 101.6025555 1.12304783 72.3625555 1.12304783 C72.3625555 1.78304783 72.3625555 2.44304783 72.3625555 3.12304783 C66.01390115 3.70683214 59.74004421 4.25873908 53.3625555 4.12304783 C52.3725555 4.12304783 51.3825555 4.12304783 50.3625555 4.12304783 C49.09282894 3.94773533 47.82310238 3.77242283 46.51489925 3.59179783 C39.15202889 2.74607278 31.77843714 3.42237311 24.39966488 3.80664158 C17.60437636 4.12021145 11.10677402 4.05474521 4.3625555 3.12304783 C4.3625555 4.11304783 4.3625555 5.10304783 4.3625555 6.12304783 C6.3425555 6.12304783 8.3225555 6.12304783 10.3625555 6.12304783 C10.3625555 7.77304783 10.3625555 9.42304783 10.3625555 11.12304783 C11.445368 11.21586033 11.445368 11.21586033 12.5500555 11.31054783 C16.2163615 12.36970289 17.8046989 14.35779744 20.3625555 17.12304783 C21.0225555 17.45304783 21.6825555 17.78304783 22.3625555 18.12304783 C22.3625555 18.78304783 22.3625555 19.44304783 22.3625555 20.12304783 C23.3525555 20.12304783 24.3425555 20.12304783 25.3625555 20.12304783 C25.3625555 21.11304783 25.3625555 22.10304783 25.3625555 23.12304783 C26.2906805 22.93742283 27.2188055 22.75179783 28.1750555 22.56054783 C31.3625555 22.12304783 31.3625555 22.12304783 34.3625555 23.12304783 C37.37592581 23.19674238 40.36561311 23.21463771 43.3781805 23.18554783 C44.26737179 23.18176121 45.15656307 23.17797459 46.07269955 23.17407322 C49.8759185 23.15774217 53.67902993 23.12971927 57.48218441 23.10254002 C60.26001132 23.08437491 63.03782032 23.07232665 65.8156805 23.06054783 C66.66696529 23.05224949 67.51825008 23.04395115 68.39533138 23.03540134 C69.20597042 23.03209812 70.01660946 23.0287949 70.85181332 23.02539158 C71.55558102 23.02015476 72.25934872 23.01491795 72.98444271 23.00952244 C75.3625555 23.12304783 75.3625555 23.12304783 78.54976559 23.6163187 C83.01885852 24.21027211 87.37550067 24.29834808 91.87793636 24.32837009 C92.80554775 24.33826969 93.73315914 24.34816929 94.68887997 24.35836887 C97.73502768 24.38979162 100.78119095 24.4146648 103.82739925 24.43945408 C105.94732205 24.46004023 108.06724089 24.48103713 110.18715572 24.5024271 C115.75193731 24.55747623 121.31675488 24.60696083 126.88159847 24.65527439 C132.56603839 24.7056151 138.25042641 24.7612354 143.93482113 24.8164072 C155.07735485 24.92377874 166.21993375 25.02526992 177.3625555 25.12304783 C177.3625555 25.45304783 177.3625555 25.78304783 177.3625555 26.12304783 C157.66517968 26.23990043 137.96787429 26.32804545 118.27022362 26.38210869 C109.12404378 26.40787954 99.97807944 26.44300861 90.83203793 26.50024509 C82.85941852 26.55011441 74.8869552 26.58234698 66.91418415 26.5934903 C62.69340826 26.60000314 58.47307884 26.61528642 54.25244617 26.65169811 C50.27724123 26.68571364 46.30266535 26.69608979 42.32732868 26.68858624 C40.87086979 26.68995832 39.4143892 26.69985835 37.95805645 26.7190752 C25.59868932 26.87411993 25.59868932 26.87411993 20.94081783 23.71257114 C18.3625555 21.12304783 18.3625555 21.12304783 18.3625555 19.12304783 C17.77828793 18.84525486 17.19402035 18.56746189 16.59204769 18.28125095 C13.01202312 16.4214572 9.86265165 14.00071741 6.6125555 11.62304783 C5.91517269 11.12418064 5.21778988 10.62531345 4.49927425 10.11132908 C3.51120785 9.39009861 3.51120785 9.39009861 2.5031805 8.65429783 C1.90022152 8.21666111 1.29726254 7.77902439 0.67603207 7.32812595 C0.2425848 6.93045017 -0.19086246 6.53277439 -0.6374445 6.12304783 C-0.6374445 5.46304783 -0.6374445 4.80304783 -0.6374445 4.12304783 C-1.2974445 4.12304783 -1.9574445 4.12304783 -2.6374445 4.12304783 C-2.9674445 3.13304783 -3.2974445 2.14304783 -3.6374445 1.12304783 C-2.6374445 0.12304783 -2.6374445 0.12304783 0 0 Z " fill="#70561C" transform="translate(37.637444496154785,195.87695217132568)"/>
<path d="M0 0 C3.01208209 1.50604104 3.08393186 3.6237005 4.13671875 6.7734375 C4.54583496 7.98209473 4.95495117 9.19075195 5.37646484 10.43603516 C5.59050964 11.07921692 5.80455444 11.72239868 6.02508545 12.3850708 C7.13350553 15.71482476 8.26552984 19.03655553 9.39453125 22.359375 C9.72964722 23.34890671 9.72964722 23.34890671 10.0715332 24.35842896 C11.92284461 29.81240936 13.86500269 35.22776419 15.875 40.625 C16.1544043 41.37692627 16.43380859 42.12885254 16.72167969 42.90356445 C17.47896239 44.93652429 18.23900447 46.96842763 19 49 C19.81590311 51.18623297 20.62896239 53.37353233 21.4375 55.5625 C21.74558594 56.38878906 22.05367188 57.21507812 22.37109375 58.06640625 C23 60 23 60 23 62 C22.34 62 21.68 62 21 62 C21 61.01 21 60.02 21 59 C20.34 59 19.68 59 19 59 C16.99226044 56.99226044 16.00607146 55.63126383 15 53 C15.375 50.75 15.375 50.75 16 49 C15.34 49 14.68 49 14 49 C14 46.36 14 43.72 14 41 C13.34 41 12.68 41 12 41 C12 40.34 12 39.68 12 39 C11.34 39 10.68 39 10 39 C10.04125 38.05125 10.0825 37.1025 10.125 36.125 C10.34973818 32.89755144 10.34973818 32.89755144 8 31 C8 30.01 8 29.02 8 28 C7.34 28 6.68 28 6 28 C5.67 26.68 5.34 25.36 5 24 C4.67 24.66 4.34 25.32 4 26 C4 23.36 4 20.72 4 18 C3.34 18 2.68 18 2 18 C2 16.02 2 14.04 2 12 C1.34 11.67 0.68 11.34 0 11 C-0.99 13.31 -1.98 15.62 -3 18 C-2.34 18.33 -1.68 18.66 -1 19 C-1.515625 19.5775 -2.03125 20.155 -2.5625 20.75 C-3.2740625 21.86375 -3.2740625 21.86375 -4 23 C-3.814375 23.66 -3.62875 24.32 -3.4375 25 C-3.293125 25.66 -3.14875 26.32 -3 27 C-4.33333333 28.33333333 -5.66666667 29.66666667 -7 31 C-9.21530425 35.16138749 -10.96428643 39.39682856 -12 44 C-11.34 44.33 -10.68 44.66 -10 45 C-11.49835228 49.66154042 -14.88463591 50.86610751 -19 53 C-18.35310076 48.33513768 -17.14368582 44.00556 -15.625 39.5625 C-15.41617188 38.93279297 -15.20734375 38.30308594 -14.9921875 37.65429688 C-13.94114209 34.53640911 -12.78951637 31.51104708 -11.48828125 28.48828125 C-9.96270623 24.91258967 -8.74602103 21.32689858 -7.5625 17.625 C-2.70678021 2.70678021 -2.70678021 2.70678021 0 0 Z " fill="#9E8032" transform="translate(250,46)"/>
<path d="M0 0 C80.19 0.495 80.19 0.495 162 1 C161.67 2.32 161.34 3.64 161 5 C157.98968256 5.93423645 157.13349732 6.04449911 154 5 C154 4.34 154 3.68 154 3 C153.34 3 152.68 3 152 3 C152.99 5.475 152.99 5.475 154 8 C153.071875 8.12375 153.071875 8.12375 152.125 8.25 C149.81562433 8.81258459 149.81562433 8.81258459 148.75 11.0625 C148.37875 12.0215625 148.37875 12.0215625 148 13 C147.01 12.67 146.02 12.34 145 12 C144.67 10.02 144.34 8.04 144 6 C144.99 6 145.98 6 147 6 C147 5.34 147 4.68 147 4 C146.03391312 4.00222061 145.06782623 4.00444122 144.07246399 4.00672913 C134.9647301 4.02700732 125.8570008 4.04199471 116.74924946 4.05181217 C112.06695425 4.0570291 107.38467729 4.06410517 102.70239258 4.07543945 C98.18312081 4.08631058 93.66386658 4.09228581 89.14458275 4.09487724 C87.42102978 4.09672386 85.69747776 4.10032983 83.97393227 4.10573006 C81.5585282 4.11299654 79.14319645 4.11398857 76.7277832 4.11352539 C76.01640198 4.11712067 75.30502075 4.12071594 74.57208252 4.12442017 C70.89912545 4.11680669 67.58373007 3.74903611 64 3 C61.85428883 2.88799227 59.70580091 2.82434045 57.55737305 2.79467773 C56.27642258 2.77473251 54.99547211 2.75478729 53.67570496 2.73423767 C52.28771076 2.71725722 50.89971533 2.70037827 49.51171875 2.68359375 C48.08396325 2.66300576 46.65621359 2.64200882 45.22846985 2.62062073 C41.48193105 2.56559047 37.73533899 2.51609773 33.9887085 2.46777344 C30.16104426 2.41741879 26.33345677 2.36180582 22.50585938 2.30664062 C15.00397137 2.19929224 7.50201926 2.09779613 0 2 C0 1.34 0 0.68 0 0 Z " fill="#765615" transform="translate(304,195)"/>
<path d="M0 0 C0.928125 0.165 1.85625 0.33 2.8125 0.5 C5.95621353 1.07748388 5.95621353 1.07748388 9 1 C9 2.32 9 3.64 9 5 C9.721875 5.061875 10.44375 5.12375 11.1875 5.1875 C14.85380599 6.24665507 16.44214339 8.23474962 19 11 C19.66 11.33 20.32 11.66 21 12 C21 12.66 21 13.32 21 14 C21.99 14 22.98 14 24 14 C24 14.99 24 15.98 24 17 C24.928125 16.814375 25.85625 16.62875 26.8125 16.4375 C30 16 30 16 33 17 C36.0133703 17.07369455 39.00305761 17.09158988 42.015625 17.0625 C42.90481628 17.05871338 43.79400757 17.05492676 44.71014404 17.05102539 C48.513363 17.03469434 52.31647442 17.00667144 56.11962891 16.97949219 C58.89745582 16.96132708 61.67526481 16.94927882 64.453125 16.9375 C65.30440979 16.92920166 66.15569458 16.92090332 67.03277588 16.91235352 C67.84341492 16.90905029 68.65405396 16.90574707 69.48925781 16.90234375 C70.19302551 16.89710693 70.89679321 16.89187012 71.62188721 16.88647461 C74 17 74 17 77.18721008 17.49327087 C81.65630301 18.08722428 86.01294517 18.17530025 90.51538086 18.20532227 C91.44299225 18.21522186 92.37060364 18.22512146 93.32632446 18.23532104 C96.37247218 18.26674379 99.41863545 18.29161698 102.46484375 18.31640625 C104.58476654 18.3369924 106.70468538 18.3579893 108.82460022 18.37937927 C114.3893818 18.4344284 119.95419937 18.483913 125.51904297 18.53222656 C131.20348289 18.58256727 136.8878709 18.63818757 142.57226562 18.69335938 C153.71479935 18.80073092 164.85737825 18.90222209 176 19 C176 19.33 176 19.66 176 20 C156.30262418 20.11685261 136.60531879 20.20499762 116.90766811 20.25906086 C107.76148828 20.28483172 98.61552394 20.31996078 89.46948242 20.37719727 C81.49686302 20.42706658 73.52439969 20.45929915 65.55162865 20.47044247 C61.33085275 20.47695531 57.11052333 20.49223859 52.88989067 20.52865028 C48.91468572 20.56266581 44.94010985 20.57304196 40.96477318 20.56553841 C39.50831429 20.5669105 38.0518337 20.57681052 36.59550095 20.59602737 C24.23613382 20.7510721 24.23613382 20.7510721 19.57826233 17.58952332 C17 15 17 15 17 13 C16.47921875 12.77441406 15.9584375 12.54882812 15.421875 12.31640625 C12.11338501 10.51808185 9.21484148 8.24095377 6.25 5.9375 C5.64800781 5.47794922 5.04601563 5.01839844 4.42578125 4.54492188 C2.92968619 3.38977365 1.46204799 2.19794972 0 1 C0 0.67 0 0.34 0 0 Z " fill="#95752E" transform="translate(39,202)"/>
<path d="M0 0 C0 1.32 0 2.64 0 4 C1.32 4.33 2.64 4.66 4 5 C2.02 5.99 2.02 5.99 0 7 C0.495 8.98 0.495 8.98 1 11 C0.41992188 11.30292969 -0.16015625 11.60585937 -0.7578125 11.91796875 C-5.68542833 14.56066701 -9.77770057 17.35346868 -14 21 C-14.94875 21.556875 -15.8975 22.11375 -16.875 22.6875 C-17.57625 23.120625 -18.2775 23.55375 -19 24 C-19 24.66 -19 25.32 -19 26 C-19.99 26.33 -20.98 26.66 -22 27 C-22.66 27.99 -23.32 28.98 -24 30 C-24.66 29.67 -25.32 29.34 -26 29 C-26 28.01 -26 27.02 -26 26 C-26.99 25.67 -27.98 25.34 -29 25 C-26.75043199 23.22861556 -24.50036258 21.45787453 -22.25 19.6875 C-21.61578125 19.18798828 -20.9815625 18.68847656 -20.328125 18.17382812 C-19.09856722 17.20683217 -17.86749686 16.24175574 -16.63476562 15.27880859 C-15.3082388 14.24112229 -13.98893767 13.19420368 -12.671875 12.14453125 C-11 11 -11 11 -9 11 C-9 10.34 -9 9.68 -9 9 C-7.35 8.01 -5.7 7.02 -4 6 C-14.89 5.67 -25.78 5.34 -37 5 C-37 4.34 -37 3.68 -37 3 C-37.66 2.67 -38.32 2.34 -39 2 C-29.43 2 -19.86 2 -10 2 C-10 1.34 -10 0.68 -10 0 C-6.33694766 -0.74926071 -3.57644848 -1.2380014 0 0 Z " fill="#D5AC48" transform="translate(394,218)"/>
<path d="M0 0 C1.98 0.99 3.96 1.98 6 3 C5.01 3.495 5.01 3.495 4 4 C3.01 3.67 2.02 3.34 1 3 C1.13847638 6.62532066 1.28702643 10.25015904 1.4375 13.875 C1.47681641 14.90753906 1.51613281 15.94007813 1.55664062 17.00390625 C1.59853516 17.99003906 1.64042969 18.97617187 1.68359375 19.9921875 C1.72025146 20.90339355 1.75690918 21.81459961 1.79467773 22.75341797 C1.86577065 25.03483481 1.86577065 25.03483481 3 27 C2.67 27.99 2.34 28.98 2 30 C3.2375 29.9175 4.475 29.835 5.75 29.75 C8.98036785 29.7442724 9.7792364 29.83994639 12.5 31.8125 C14 34 14 34 14 37 C13.34 37 12.68 37 12 37 C12 37.66 12 38.32 12 39 C13.175625 39.0928125 13.175625 39.0928125 14.375 39.1875 C15.24125 39.455625 16.1075 39.72375 17 40 C18.3125 42.5625 18.3125 42.5625 19 45 C14.32208618 43.42879231 10.70075271 40.86880384 6.75 38 C6.11320312 37.54882812 5.47640625 37.09765625 4.8203125 36.6328125 C0.12982766 33.25965532 0.12982766 33.25965532 -1 31 C-1.09771688 28.76080846 -1.13077374 26.5186655 -1.1328125 24.27734375 C-1.13376923 23.61666397 -1.13472595 22.95598419 -1.13571167 22.27528381 C-1.13639216 20.87907821 -1.134547 19.48286944 -1.13037109 18.08666992 C-1.12501243 15.94247386 -1.13032479 13.79848647 -1.13671875 11.65429688 C-1.13605811 10.2994787 -1.13477725 8.94466066 -1.1328125 7.58984375 C-1.13168457 6.35097412 -1.13055664 5.11210449 -1.12939453 3.83569336 C-1 1 -1 1 0 0 Z " fill="#A28F52" transform="translate(250,330)"/>
<path d="M0 0 C0.66 0 1.32 0 2 0 C1.67 1.65 1.34 3.3 1 5 C0.67 5 0.34 5 0 5 C0 3.35 0 1.7 0 0 Z M-3 5 C-2.01 5 -1.02 5 0 5 C0 5.66 0 6.32 0 7 C0.66 7.33 1.32 7.66 2 8 C1.484375 8.5775 0.96875 9.155 0.4375 9.75 C-0.036875 10.4925 -0.51125 11.235 -1 12 C-0.814375 12.66 -0.62875 13.32 -0.4375 14 C-0.293125 14.66 -0.14875 15.32 0 16 C-1.33333333 17.33333333 -2.66666667 18.66666667 -4 20 C-6.21530425 24.16138749 -7.96428643 28.39682856 -9 33 C-8.34 33.33 -7.68 33.66 -7 34 C-8.49835228 38.66154042 -11.88463591 39.86610751 -16 42 C-15.35310076 37.33513768 -14.14368582 33.00556 -12.625 28.5625 C-12.41617188 27.93279297 -12.20734375 27.30308594 -11.9921875 26.65429688 C-10.5333583 22.32673342 -8.81920824 18.18266714 -7 14 C-6.31163487 12.00736409 -5.63718601 10.00958663 -5 8 C-4.34 8 -3.68 8 -3 8 C-3 7.01 -3 6.02 -3 5 Z " fill="#947E3B" transform="translate(247,57)"/>
<path d="M0 0 C1.60717771 2.41076656 2.61542515 4.28099245 3.625 6.9375 C3.88539063 7.60652344 4.14578125 8.27554688 4.4140625 8.96484375 C5 11 5 11 5 15 C26.12 15 47.24 15 69 15 C68.67 15.99 68.34 16.98 68 18 C59.09 18 50.18 18 41 18 C41 17.34 41 16.68 41 16 C27.8 16 14.6 16 1 16 C1.66 14.68 2.32 13.36 3 12 C3 11.01 3 10.02 3 9 C2.01 9 1.02 9 0 9 C0 6.03 0 3.06 0 0 Z " fill="#D4BE6C" transform="translate(299,182)"/>
<path d="M0 0 C0.99 0.66 1.98 1.32 3 2 C2.66199859 4.96248299 2.05873222 5.94426323 -0.14453125 8.03515625 C-1.02496094 8.70417969 -1.90539062 9.37320313 -2.8125 10.0625 C-4.12154297 11.06990234 -4.12154297 11.06990234 -5.45703125 12.09765625 C-6.29621094 12.72542969 -7.13539063 13.35320312 -8 14 C-8.72574219 14.57621094 -9.45148438 15.15242188 -10.19921875 15.74609375 C-12 17 -12 17 -14 17 C-14 17.66 -14 18.32 -14 19 C-15.6796875 20.5078125 -15.6796875 20.5078125 -17.875 22.125 C-18.59429687 22.66382813 -19.31359375 23.20265625 -20.0546875 23.7578125 C-22 25 -22 25 -24 25 C-24 24.01 -24 23.02 -24 22 C-23.34 21.67 -22.68 21.34 -22 21 C-21.27306096 19.02111039 -20.60183749 17.02045442 -20 15 C-18.906875 14.855625 -17.81375 14.71125 -16.6875 14.5625 C-13.06877013 14.11711896 -13.06877013 14.11711896 -10 13 C-10 10.69 -10 8.38 -10 6 C-7.69 6 -5.38 6 -3 6 C-2.01 4.02 -1.02 2.04 0 0 Z " fill="#B69239" transform="translate(402,242)"/>
<path d="M0 0 C0.66 0 1.32 0 2 0 C2.33 1.32 2.66 2.64 3 4 C-10.36893204 16 -10.36893204 16 -13 16 C-13.66 14.35 -14.32 12.7 -15 11 C-14.01 10.67 -13.02 10.34 -12 10 C-10.77479736 6.99152582 -10.77479736 6.99152582 -10 4 C-8.68 4 -7.36 4 -6 4 C-5.67 3.34 -5.34 2.68 -5 2 C-4.34 2.66 -3.68 3.32 -3 4 C-2.54625 3.34 -2.0925 2.68 -1.625 2 C-1.08875 1.34 -0.5525 0.68 0 0 Z " fill="#A07A27" transform="translate(418,230)"/>
<path d="M0 0 C3.14128754 1.57064377 3.57809687 4.66761078 4.6875 7.8125 C4.92533203 8.44220703 5.16316406 9.07191406 5.40820312 9.72070312 C6.63142274 13.13926116 7.43004376 15.55922805 6 19 C6 18.34 6 17.68 6 17 C4.68 17.33 3.36 17.66 2 18 C2 16.02 2 14.04 2 12 C0.35 11.67 -1.3 11.34 -3 11 C-3 12.65 -3 14.3 -3 16 C-3.99 16 -4.98 16 -6 16 C-6.33 16.99 -6.66 17.98 -7 19 C-6.41249992 14.5470164 -5.26681981 10.81179158 -3.5 6.6875 C-3.0565625 5.63949219 -2.613125 4.59148438 -2.15625 3.51171875 C-1 1 -1 1 0 0 Z " fill="#846425" transform="translate(250,46)"/>
<path d="M0 0 C0.33 0.66 0.66 1.32 1 2 C1.66 2 2.32 2 3 2 C4.17347102 5.76875019 5.33760333 9.54032084 6.5 13.3125 C6.83386719 14.38435547 7.16773438 15.45621094 7.51171875 16.56054688 C7.98544922 18.10258789 7.98544922 18.10258789 8.46875 19.67578125 C8.76201172 20.62364502 9.05527344 21.57150879 9.35742188 22.5480957 C10 25 10 25 10 28 C6.06326356 26.68775452 3.77280706 25.08089673 1 22 C2.65 22 4.3 22 6 22 C5.34 21.01 4.68 20.02 4 19 C3.875 16.3125 3.875 16.3125 4 14 C3.01 14.33 2.02 14.66 1 15 C0.67 13.68 0.34 12.36 0 11 C-0.33 11 -0.66 11 -1 11 C-0.67 7.37 -0.34 3.74 0 0 Z " fill="#D9C47F" transform="translate(377,426)"/>
<path d="M0 0 C0.6875 1.8125 0.6875 1.8125 1 4 C-0.49753802 6.04926255 -1.83097161 6.92045723 -4.125 8 C-6.3530435 8.91202978 -6.3530435 8.91202978 -7 12 C-9.09993221 12.74513723 -10.77431099 13 -13 13 C-13 12.01 -13 11.02 -13 10 C-13.66 9.67 -14.32 9.34 -15 9 C-11.15007802 3.6693388 -7.00012355 -0.82354395 0 0 Z " fill="#DDC46C" transform="translate(350,259)"/>
<path d="M0 0 C0 0.66 0 1.32 0 2 C1.32 2 2.64 2 4 2 C4 2.99 4 3.98 4 5 C6.475 5.99 6.475 5.99 9 7 C9 7.66 9 8.32 9 9 C9.99 9.33 10.98 9.66 12 10 C9.36 10.33 6.72 10.66 4 11 C4.33 9.68 4.66 8.36 5 7 C2.03 7.66 -0.94 8.32 -4 9 C-4 8.34 -4 7.68 -4 7 C-4.99 7 -5.98 7 -7 7 C-7 6.34 -7 5.68 -7 5 C-7.66 5 -8.32 5 -9 5 C-8.67 4.01 -8.34 3.02 -8 2 C-6.0625 1.375 -6.0625 1.375 -4 1 C-2 0 -2 0 0 0 Z " fill="#F6DF7D" transform="translate(313,373)"/>
<path d="M0 0 C0.66 0.33 1.32 0.66 2 1 C1.41181172 3.45078452 0.74194621 5.83867481 0 8.25 C-0.74519015 11.04446306 -1.20807502 13.41415738 -1.5 16.25 C-2 20 -2 20 -4 23 C-3.34 24.32 -2.68 25.64 -2 27 C-4.4375 26.625 -4.4375 26.625 -7 26 C-8.89280067 22.21439865 -8.20882997 18.68757062 -7.01171875 14.74609375 C-6.57472656 13.65425781 -6.13773438 12.56242188 -5.6875 11.4375 C-5.25824219 10.34308594 -4.82898438 9.24867188 -4.38671875 8.12109375 C-3.11088837 5.24957693 -1.68238327 2.64938363 0 0 Z " fill="#E0D491" transform="translate(208,164)"/>
<path d="M0 0 C0.66 0.33 1.32 0.66 2 1 C1.67 3.64 1.34 6.28 1 9 C-15.5 9 -32 9 -49 9 C-49 8.67 -49 8.34 -49 8 C-34.48 7.67 -19.96 7.34 -5 7 C-5.495 5.515 -5.495 5.515 -6 4 C-4.68 4 -3.36 4 -2 4 C-1.34 2.68 -0.68 1.36 0 0 Z " fill="#F8E897" transform="translate(214,212)"/>
<path d="M0 0 C3.9079999 3.13277166 3.7731872 6.78343709 4.375 11.50390625 C4.78912849 14.34504144 4.78912849 14.34504144 8 16 C8.125 18.3125 8.125 18.3125 8 21 C8.20625 21.886875 8.4125 22.77375 8.625 23.6875 C8.74875 24.450625 8.8725 25.21375 9 26 C8.34 26.66 7.68 27.32 7 28 C7 27.34 7 26.68 7 26 C6.34 26 5.68 26 5 26 C2.25506495 18.18183678 0.32379279 11.32110535 1 3 C0.34 3 -0.32 3 -1 3 C-0.67 2.01 -0.34 1.02 0 0 Z " fill="#E1D795" transform="translate(333,362)"/>
<path d="M0 0 C0.66 0.33 1.32 0.66 2 1 C1.875 2.875 1.875 2.875 1 5 C-0.98723268 5.70381157 -2.98777953 6.3711811 -5 7 C-5.33 7.99 -5.66 8.98 -6 10 C-6.99 10 -7.98 10 -9 10 C-9.33 10.99 -9.66 11.98 -10 13 C-11.55859375 14.53515625 -11.55859375 14.53515625 -13.4375 16.0625 C-15.38553905 17.66078674 -17.21573944 19.21573944 -19 21 C-23 21 -23 21 -25 20 C-19.25 15 -19.25 15 -17 15 C-17 14.34 -17 13.68 -17 13 C-15.05859375 11.484375 -15.05859375 11.484375 -12.4375 9.75 C-8.00938836 6.74543492 -3.99229957 3.55835396 0 0 Z " fill="#C1B47D" transform="translate(335,266)"/>
<path d="M0 0 C12.04750524 -0.1063689 23.99494383 -0.14724086 36 1 C36 1.33 36 1.66 36 2 C31.99679847 2.95377184 28.27788253 3.1157616 24.16796875 3.09765625 C22.87568359 3.09443359 21.58339844 3.09121094 20.25195312 3.08789062 C18.89713474 3.07953665 17.54231703 3.07107172 16.1875 3.0625 C14.81315265 3.05748 13.43880355 3.05291797 12.06445312 3.04882812 C8.70959076 3.03705668 5.35481779 3.02061283 2 3 C2 2.34 2 1.68 2 1 C1.34 0.67 0.68 0.34 0 0 Z " fill="#BEA054" transform="translate(355,220)"/>
<path d="M0 0 C7.92 0 15.84 0 24 0 C24.66 1.65 25.32 3.3 26 5 C25.071875 5.12375 25.071875 5.12375 24.125 5.25 C21.81562433 5.81258459 21.81562433 5.81258459 20.75 8.0625 C20.5025 8.701875 20.255 9.34125 20 10 C19.01 9.67 18.02 9.34 17 9 C16.67 7.02 16.34 5.04 16 3 C16.99 3 17.98 3 19 3 C19 2.34 19 1.68 19 1 C12.73 1 6.46 1 0 1 C0 0.67 0 0.34 0 0 Z " fill="#C18E25" transform="translate(432,198)"/>
<path d="M0 0 C4.07839223 2.03919611 5.50151721 7.85348958 7.25 11.875 C8.30336539 16.26402247 8.15975946 20.50898418 8 25 C7.34 25 6.68 25 6 25 C6 24.01 6 23.02 6 22 C5.01 21.67 4.02 21.34 3 21 C3.37125 19.8553125 3.37125 19.8553125 3.75 18.6875 C4.06739473 14.00592778 2.68049766 10.87076382 0.91015625 6.5859375 C0 4 0 4 0 0 Z " fill="#CDC382" transform="translate(359,371)"/>
<path d="M0 0 C0.9178125 0.00451172 1.835625 0.00902344 2.78125 0.01367188 C5.02090391 0.02533674 7.26041545 0.04170386 9.5 0.0625 C9.17 1.0525 8.84 2.0425 8.5 3.0625 C-0.41 3.0625 -9.32 3.0625 -18.5 3.0625 C-18.5 2.4025 -18.5 1.7425 -18.5 1.0625 C-12.28829926 0.14090421 -6.27390894 -0.05927385 0 0 Z " fill="#CCA642" transform="translate(358.5,196.9375)"/>
<path d="M0 0 C0 1.65 0 3.3 0 5 C-0.66 5 -1.32 5 -2 5 C-2.020625 5.5775 -2.04125 6.155 -2.0625 6.75 C-3.60679013 10.4562963 -6.4367181 11.31212963 -10 13 C-10.66 12.67 -11.32 12.34 -12 12 C-11.01 11.67 -10.02 11.34 -9 11 C-9 10.34 -9 9.68 -9 9 C-6.5 7.375 -6.5 7.375 -4 6 C-7.26545761 4.11608215 -10.28111761 3.50712033 -14 3 C-12.68 2.67 -11.36 2.34 -10 2 C-10 1.34 -10 0.68 -10 0 C-6.33694766 -0.74926071 -3.57644848 -1.2380014 0 0 Z " fill="#C7982D" transform="translate(394,218)"/>
<path d="M0 0 C3.65589852 0.89366408 5.55866062 1.44476659 7.9375 4.4375 C9 7 9 7 8 10 C4.7 9.34 1.4 8.68 -2 8 C-2.125 5.125 -2.125 5.125 -2 2 C-1.34 1.34 -0.68 0.68 0 0 Z " fill="#F1D674" transform="translate(290,358)"/>
<path d="M0 0 C-1.98 0.99 -1.98 0.99 -4 2 C-3.67 3.32 -3.34 4.64 -3 6 C-3.60328125 6.32613281 -4.2065625 6.65226563 -4.828125 6.98828125 C-6.02695312 7.64376953 -6.02695312 7.64376953 -7.25 8.3125 C-8.03890625 8.74175781 -8.8278125 9.17101562 -9.640625 9.61328125 C-11.89727134 10.9396214 -13.93998597 12.38884224 -16 14 C-16 10 -16 10 -14 7 C-9.55555556 4 -9.55555556 4 -7 4 C-6.87625 3.360625 -6.7525 2.72125 -6.625 2.0625 C-6.41875 1.381875 -6.2125 0.70125 -6 0 C-3.50907189 -1.24546405 -2.58919267 -0.7767578 0 0 Z " fill="#CEA233" transform="translate(398,223)"/>
<path d="M0 0 C2.34882224 2.34882224 3.03503024 4.27123667 4.1875 7.375 C4.55230469 8.33148438 4.91710937 9.28796875 5.29296875 10.2734375 C6.01370542 13.05285296 5.98549829 14.35108103 5 17 C4.34 17 3.68 17 3 17 C2.34 17.66 1.68 18.32 1 19 C-0.5625 16.6875 -0.5625 16.6875 -2 14 C-1.67 13.01 -1.34 12.02 -1 11 C0.0644527 6.38089287 0.0644527 6.38089287 -1 2 C-0.67 1.34 -0.34 0.68 0 0 Z " fill="#BA9B49" transform="translate(282,135)"/>
<path d="M0 0 C13.2 0 26.4 0 40 0 C40 0.33 40 0.66 40 1 C35.70879273 1.19916043 31.41703701 1.38218102 27.125 1.5625 C25.92101562 1.61857422 24.71703125 1.67464844 23.4765625 1.73242188 C16.54407594 2.01499606 9.87816354 1.95237638 3 1 C3 1.99 3 2.98 3 4 C4.32 4.33 5.64 4.66 7 5 C5.68 5.33 4.36 5.66 3 6 C0 2.25 0 2.25 0 0 Z " fill="#B5881D" transform="translate(39,198)"/>
<path d="M0 0 C2.88899714 2.88899714 3.75497134 6.46421142 5.0625 10.25 C5.33126953 11.00152344 5.60003906 11.75304687 5.87695312 12.52734375 C7.32688705 16.6710452 8.43564186 20.62448258 9 25 C8.67 24.34 8.34 23.68 8 23 C7.34 23 6.68 23 6 23 C6 21.02 6 19.04 6 17 C5.360625 16.87625 4.72125 16.7525 4.0625 16.625 C3.0415625 16.315625 3.0415625 16.315625 2 16 C1 14 1 14 1.0625 11.5 C1.28293845 8.82346261 1.28293845 8.82346261 -1 7 C-0.625 3.375 -0.625 3.375 0 0 Z " fill="#AF8F42" transform="translate(273,110)"/>
<path d="M0 0 C0.88935377 3.303314 1.46274105 6.62294375 2 10 C1.01 10.495 1.01 10.495 0 11 C0.33 12.32 0.66 13.64 1 15 C-0.49739583 16.23697917 -1.99479167 17.47395833 -3.4921875 18.7109375 C-4.71051161 19.75250992 -5.86660097 20.86660097 -7 22 C-6.67 20.35 -6.34 18.7 -6 17 C-5.34 17 -4.68 17 -4 17 C-3.96261719 16.35933594 -3.92523438 15.71867188 -3.88671875 15.05859375 C-3.45662723 9.39993859 -2.53913094 5.07826187 0 0 Z " fill="#F2E083" transform="translate(222,125)"/>
<path d="M0 0 C4.39081764 1.5214886 8.02875969 3.85939639 11.8125 6.5 C12.7087207 7.10521484 12.7087207 7.10521484 13.62304688 7.72265625 C15.12143611 8.76039782 16.56615614 9.87475797 18 11 C18 11.66 18 12.32 18 13 C15.8125 13.3125 15.8125 13.3125 13 13 C10.375 10.5625 10.375 10.5625 8 8 C7.01 7.67 6.02 7.34 5 7 C3.97980427 6.0206121 2.97850195 5.02104551 2 4 C1.34 3.67 0.68 3.34 0 3 C0 2.01 0 1.02 0 0 Z " fill="#B7AC6C" transform="translate(317,375)"/>
<path d="M0 0 C0.66 0 1.32 0 2 0 C2 0.66 2 1.32 2 2 C2.66 2 3.32 2 4 2 C4.33 1.34 4.66 0.68 5 0 C5 0.99 5 1.98 5 3 C5.66 3.33 6.32 3.66 7 4 C1.72 7.96 -3.56 11.92 -9 16 C-9.33 15.01 -9.66 14.02 -10 13 C-9.34 13 -8.68 13 -8 13 C-7.67 12.01 -7.34 11.02 -7 10 C-6.01 10 -5.02 10 -4 10 C-3.34 8.35 -2.68 6.7 -2 5 C-0.68 5 0.64 5 2 5 C1.34 3.35 0.68 1.7 0 0 Z " fill="#8A6928" transform="translate(456,198)"/>
<path d="M0 0 C5.75 0.75 5.75 0.75 8 3 C10.57061311 3.64767793 10.57061311 3.64767793 13 4 C13 4.66 13 5.32 13 6 C14.65 6.33 16.3 6.66 18 7 C18 8.65 18 10.3 18 12 C16.68 11.67 15.36 11.34 14 11 C14 10.34 14 9.68 14 9 C12.02 8.34 10.04 7.68 8 7 C8 6.34 8 5.68 8 5 C6.8553125 4.5978125 6.8553125 4.5978125 5.6875 4.1875 C3.12619116 3.05575888 1.80307062 2.08776599 0 0 Z " fill="#A4924A" transform="translate(269,375)"/>
<path d="M0 0 C0.66 0 1.32 0 2 0 C2 1.65 2 3.3 2 5 C1.34 5 0.68 5 0 5 C0.04125 6.0725 0.0825 7.145 0.125 8.25 C0.0114175 11.65747485 -0.21273364 13.20739631 -2 16 C-2.66 16 -3.32 16 -4 16 C-4 11.38 -4 6.76 -4 2 C-3.01 2 -2.02 2 -1 2 C-0.67 1.34 -0.34 0.68 0 0 Z " fill="#F9EFA5" transform="translate(220,196)"/>
<path d="M0 0 C0.99 0.33 1.98 0.66 3 1 C2.67 1.99 2.34 2.98 2 4 C2.66 4.33 3.32 4.66 4 5 C2.50164772 9.66154042 -0.88463591 10.86610751 -5 13 C-4.44894091 9.0507432 -3.61064629 5.65079826 -2 2 C-1.34 2 -0.68 2 0 2 C0 1.34 0 0.68 0 0 Z " fill="#DBB753" transform="translate(236,86)"/>
<path d="M0 0 C0.66 0 1.32 0 2 0 C1.67 1.65 1.34 3.3 1 5 C0.67 5 0.34 5 0 5 C0 3.35 0 1.7 0 0 Z M-3 5 C-2.01 5 -1.02 5 0 5 C0 5.66 0 6.32 0 7 C0.66 7.33 1.32 7.66 2 8 C1.484375 8.5775 0.96875 9.155 0.4375 9.75 C-0.036875 10.4925 -0.51125 11.235 -1 12 C-0.814375 12.66 -0.62875 13.32 -0.4375 14 C-0.293125 14.66 -0.14875 15.32 0 16 C-1.8125 18.125 -1.8125 18.125 -4 20 C-4.66 20.66 -5.32 21.32 -6 22 C-5.69095829 19.72869344 -5.37765093 17.45796695 -5.0625 15.1875 C-4.88847656 13.92292969 -4.71445313 12.65835938 -4.53515625 11.35546875 C-4 8 -4 8 -3 5 Z " fill="#CA9E38" transform="translate(247,57)"/>
<path d="M0 0 C1.98 0 3.96 0 6 0 C6 0.99 6 1.98 6 3 C7.65 3.33 9.3 3.66 11 4 C11 4.66 11 5.32 11 6 C13.97 6.495 13.97 6.495 17 7 C17.33 8.65 17.66 10.3 18 12 C13.58883965 10.4797696 9.97050368 8.10711129 6.1875 5.4375 C5.2912793 4.8197168 5.2912793 4.8197168 4.37695312 4.18945312 C2.8968441 3.15591414 1.44546837 2.08145584 0 1 C0 0.67 0 0.34 0 0 Z " fill="#B4A35B" transform="translate(323,411)"/>
<path d="M0 0 C-0.25 1.875 -0.25 1.875 -1 4 C-3.0625 5.25 -3.0625 5.25 -5 6 C-5 6.66 -5 7.32 -5 8 C-6.98 8.99 -6.98 8.99 -9 10 C-9.33 8.02 -9.66 6.04 -10 4 C-3.56521739 0 -3.56521739 0 0 0 Z " fill="#9A6E1A" transform="translate(430,224)"/>
<path d="M0 0 C11.22 0 22.44 0 34 0 C33.67 0.99 33.34 1.98 33 3 C30.05610218 4.17755913 29.10046087 4.03348696 26 3 C26 2.34 26 1.68 26 1 C17.42 1 8.84 1 0 1 C0 0.67 0 0.34 0 0 Z " fill="#AD8B3C" transform="translate(432,197)"/>
<path d="M0 0 C3.375 -0.1875 3.375 -0.1875 7 0 C9.12508244 3.18762365 9.5020163 5.26512223 10 9 C7.125 8.6875 7.125 8.6875 4 8 C2 5 2 5 2 1 C1.34 0.67 0.68 0.34 0 0 Z " fill="#F8E081" transform="translate(374,440)"/>
<path d="M0 0 C2.70165032 2.70165032 2 4.29811832 2 8 C2.66 8.66 3.32 9.32 4 10 C4.125 13.125 4.125 13.125 4 16 C3.01 16 2.02 16 1 16 C0.32741333 13.66836622 -0.33847444 11.3347961 -1 9 C-1.2475 8.29875 -1.495 7.5975 -1.75 6.875 C-2.10761577 4.19288172 -1.13403815 2.40149256 0 0 Z " fill="#FBE78F" transform="translate(370,406)"/>
<path d="M0 0 C0.33 0.66 0.66 1.32 1 2 C1.66 2 2.32 2 3 2 C3 1.34 3 0.68 3 0 C3.99 0 4.98 0 6 0 C6 0.99 6 1.98 6 3 C5.34 3 4.68 3 4 3 C4 3.66 4 4.32 4 5 C5.175625 5.0928125 5.175625 5.0928125 6.375 5.1875 C7.674375 5.5896875 7.674375 5.5896875 9 6 C10.3125 8.5625 10.3125 8.5625 11 11 C6.32894208 9.44298069 2.91294315 6.91552627 -1 4 C-0.67 2.68 -0.34 1.36 0 0 Z " fill="#AD9140" transform="translate(258,364)"/>
<path d="M0 0 C2.95384268 2.95384268 3.81397705 6.48389029 5.1875 10.375 C5.47302734 11.14328125 5.75855469 11.9115625 6.05273438 12.703125 C6.31763672 13.44820312 6.58253906 14.19328125 6.85546875 14.9609375 C7.22128052 15.97873291 7.22128052 15.97873291 7.59448242 17.01708984 C8.06651409 19.32524229 7.72539027 20.78199761 7 23 C6.67 23 6.34 23 6 23 C5.67 20.36 5.34 17.72 5 15 C4.34 15 3.68 15 3 15 C-0.16727335 9.8531808 -0.35050464 5.841744 0 0 Z " fill="#A08E4B" transform="translate(290,157)"/>
<path d="M0 0 C7.26 0 14.52 0 22 0 C22 0.66 22 1.32 22 2 C15.65333314 2.58360155 9.37625222 3.14491482 3 3 C3 2.34 3 1.68 3 1 C2.01 0.67 1.02 0.34 0 0 Z " fill="#CBA244" transform="translate(88,197)"/>
<path d="M0 0 C-0.66 0 -1.32 0 -2 0 C-2.04125 0.721875 -2.0825 1.44375 -2.125 2.1875 C-3.39881294 6.28189875 -5.53428325 7.52448804 -9 10 C-9.66 10 -10.32 10 -11 10 C-11 9.01 -11 8.02 -11 7 C-10.34 6.67 -9.68 6.34 -9 6 C-8.71125 5.01 -8.4225 4.02 -8.125 3 C-7 0 -7 0 -5.0625 -0.9375 C-3 -1 -3 -1 0 0 Z " fill="#D5B24B" transform="translate(389,257)"/>
<path d="M0 0 C0.99 0.33 1.98 0.66 3 1 C3.53030068 3.43578787 4.04952312 5.87305975 4.5625 8.3125 C4.71396484 9.00279297 4.86542969 9.69308594 5.02148438 10.40429688 C5.71761569 13.75544066 6.10155309 15.69534072 5 19 C4.72285156 18.14535156 4.44570312 17.29070312 4.16015625 16.41015625 C3.79792969 15.30542969 3.43570313 14.20070312 3.0625 13.0625 C2.52302734 11.40927734 2.52302734 11.40927734 1.97265625 9.72265625 C1.26143332 7.11876525 1.26143332 7.11876525 0 6 C-0.66 6.66 -1.32 7.32 -2 8 C-2 5.69 -2 3.38 -2 1 C-1.34 0.67 -0.68 0.34 0 0 Z " fill="#9F8B4A" transform="translate(250,121)"/>
<path d="M0 0 C4.65427049 4.10823875 5.74210573 9.96908261 6.5 15.9375 C6.665 16.948125 6.83 17.95875 7 19 C7.99 19.66 8.98 20.32 10 21 C9.01 23.475 9.01 23.475 8 26 C5.71142179 21.6480002 4.34209292 17.11605231 2.875 12.4375 C2.59785156 11.57447266 2.32070313 10.71144531 2.03515625 9.82226562 C1.77347656 8.99275391 1.51179688 8.16324219 1.2421875 7.30859375 C1.0035498 6.55376709 0.76491211 5.79894043 0.51904297 5.02124023 C0 3 0 3 0 0 Z " fill="#8E8962" transform="translate(309,293)"/>
<path d="M0 0 C2.42604752 2.42604752 2.75843519 4.14192776 3.625 7.4375 C3.88539063 8.40558594 4.14578125 9.37367188 4.4140625 10.37109375 C5 13 5 13 5 16 C1.06326356 14.68775452 -1.22719294 13.08089673 -4 10 C-2.35 10 -0.7 10 1 10 C0.67 6.7 0.34 3.4 0 0 Z " fill="#9E9462" transform="translate(382,438)"/>
<path d="M0 0 C2.89932357 2.39509338 3.50168276 4.31245243 4 8 C1.36 8.99 -1.28 9.98 -4 11 C-2.25 3.375 -2.25 3.375 0 0 Z " fill="#ECD066" transform="translate(229,110)"/>
<path d="M0 0 C2.0625 0.4375 2.0625 0.4375 4 1 C4 1.66 4 2.32 4 3 C4.66 3 5.32 3 6 3 C6 3.99 6 4.98 6 6 C6.66 6 7.32 6 8 6 C8 7.32 8 8.64 8 10 C6.68 9.34 5.36 8.68 4 8 C4 7.34 4 6.68 4 6 C3.01 6 2.02 6 1 6 C0.67 6.66 0.34 7.32 0 8 C-0.33 7.01 -0.66 6.02 -1 5 C-0.34 5 0.32 5 1 5 C0.34 3.68 -0.32 2.36 -1 1 C-0.67 0.67 -0.34 0.34 0 0 Z " fill="#CEA743" transform="translate(265,102)"/>
<path d="M0 0 C0.33 0.66 0.66 1.32 1 2 C1.66 2 2.32 2 3 2 C5.09230769 6.43076923 5.09230769 6.43076923 4.625 9.3125 C4.41875 9.869375 4.2125 10.42625 4 11 C3.01 11 2.02 11 1 11 C0.67 9.68 0.34 8.36 0 7 C-0.33 7.66 -0.66 8.32 -1 9 C-1.09765625 2.84765625 -1.09765625 2.84765625 -1 1 C-0.67 0.67 -0.34 0.34 0 0 Z " fill="#9D7829" transform="translate(255,63)"/>
<path d="M0 0 C0.99 0 1.98 0 3 0 C3 0.66 3 1.32 3 2 C3.66 2 4.32 2 5 2 C4.67 3.32 4.34 4.64 4 6 C2.35 5.67 0.7 5.34 -1 5 C-1 6.65 -1 8.3 -1 10 C-1.99 10 -2.98 10 -4 10 C-4.33 10.99 -4.66 11.98 -5 13 C-4.51421457 9.87709365 -4.0013988 7.00419641 -3 4 C-2.34 3.67 -1.68 3.34 -1 3 C-0.67 2.01 -0.34 1.02 0 0 Z " fill="#9F7C2C" transform="translate(248,52)"/>
<path d="M0 0 C2.5966562 2.5966562 3.10687691 4.93815375 4.1875 8.4375 C4.55230469 9.59121094 4.91710937 10.74492187 5.29296875 11.93359375 C6 15 6 15 5 18 C1.70728811 15.0365593 0.15340966 13.41858811 -0.33203125 8.9296875 C-0.31435795 5.93936524 -0.2171462 2.98214111 0 0 Z " fill="#BAAE80" transform="translate(348,330)"/>
<path d="M0 0 C0.66 0.33 1.32 0.66 2 1 C2 1.66 2 2.32 2 3 C1.01 3.33 0.02 3.66 -1 4 C-1 5.65 -1 7.3 -1 9 C-1.99 9 -2.98 9 -4 9 C-4 9.66 -4 10.32 -4 11 C-5.32 10.67 -6.64 10.34 -8 10 C-7.34 9.05125 -6.68 8.1025 -6 7.125 C-3.82031543 4.33761045 -3.82031543 4.33761045 -4 2 C-2.68 2 -1.36 2 0 2 C0 1.34 0 0.68 0 0 Z " fill="#C39425" transform="translate(412,232)"/>
<path d="M0 0 C2.0625 0.4375 2.0625 0.4375 4 1 C3.34 1 2.68 1 2 1 C2 1.66 2 2.32 2 3 C2.99 3.33 3.98 3.66 5 4 C4.67 5.65 4.34 7.3 4 9 C2.68 9.33 1.36 9.66 0 10 C-1.49106457 7.01787087 -1.11941467 4.28390342 -1 1 C-0.67 0.67 -0.34 0.34 0 0 Z M2 6 C3 8 3 8 3 8 Z " fill="#EED67C" transform="translate(275,184)"/>
<path d="M0 0 C-0.33 2.64 -0.66 5.28 -1 8 C0.32 8 1.64 8 3 8 C3 8.66 3 9.32 3 10 C0.5625 9.625 0.5625 9.625 -2 9 C-2.33 8.34 -2.66 7.68 -3 7 C-5.02463255 6.34786708 -5.02463255 6.34786708 -7 6 C-7 5.01 -7 4.02 -7 3 C-2.77777778 0 -2.77777778 0 0 0 Z " fill="#F3D770" transform="translate(336,408)"/>
<path d="M0 0 C1.45618335 2.9123667 2.60218333 5.50954722 3.625 8.5625 C4.01558594 9.70912109 4.01558594 9.70912109 4.4140625 10.87890625 C5 13 5 13 5 16 C2.525 15.01 2.525 15.01 0 14 C0 9.38 0 4.76 0 0 Z " fill="#C6BA81" transform="translate(339,300)"/>
<path d="M0 0 C0.928125 0.165 1.85625 0.33 2.8125 0.5 C5.95621353 1.07748388 5.95621353 1.07748388 9 1 C9 2.65 9 4.3 9 6 C10.32 6.66 11.64 7.32 13 8 C13 8.66 13 9.32 13 10 C9.74035658 8.51222697 7.06830707 6.64333184 4.25 4.4375 C3.45078125 3.81746094 2.6515625 3.19742188 1.828125 2.55859375 C1.22484375 2.04425781 0.6215625 1.52992188 0 1 C0 0.67 0 0.34 0 0 Z " fill="#896A2B" transform="translate(39,202)"/>
<path d="M0 0 C0.66 0.99 1.32 1.98 2 3 C1.34 3 0.68 3 0 3 C0.11509661 4.41750563 0.24253658 5.83401169 0.375 7.25 C0.44460937 8.03890625 0.51421875 8.8278125 0.5859375 9.640625 C1.01507113 12.085877 1.78600638 13.84836903 3 16 C0.5625 15.625 0.5625 15.625 -2 15 C-3.42151345 12.15697309 -3.23922606 10.16974528 -3 7 C-2.15794312 4.5570559 -1.12183792 2.33716233 0 0 Z " fill="#D7D08E" transform="translate(203,175)"/>
<path d="M0 0 C0.99 0.33 1.98 0.66 3 1 C3 2.98 3 4.96 3 7 C4.32 7.66 5.64 8.32 7 9 C7.1875 11.875 7.1875 11.875 7 15 C6.01 15.66 5.02 16.32 4 17 C4.33 14.69 4.66 12.38 5 10 C4.01 10.33 3.02 10.66 2 11 C1.855625 9.9275 1.71125 8.855 1.5625 7.75 C1.16250558 5.08337051 0.72408076 2.58600271 0 0 Z " fill="#D8AF47" transform="translate(272,118)"/>
<path d="M0 0 C0.66 0.33 1.32 0.66 2 1 C-2.17753745 6.34572422 -5.4304509 9.97860028 -12 12 C-12.99 12 -13.98 12 -15 12 C-14.00097656 11.21753906 -13.00195312 10.43507812 -11.97265625 9.62890625 C-10.66924354 8.60680564 -9.36585961 7.58466832 -8.0625 6.5625 C-7.40314453 6.04623047 -6.74378906 5.52996094 -6.06445312 4.99804688 C-5.43603516 4.50498047 -4.80761719 4.01191406 -4.16015625 3.50390625 C-3.57886963 3.04830322 -2.99758301 2.5927002 -2.39868164 2.12329102 C-1.02763998 1.06382373 -1.02763998 1.06382373 0 0 Z " fill="#8E763A" transform="translate(380,231)"/>
<path d="M0 0 C-0.66 0 -1.32 0 -2 0 C-2 0.66 -2 1.32 -2 2 C-3.96875 3.7265625 -3.96875 3.7265625 -6.5 5.625 C-7.3353125 6.25664062 -8.170625 6.88828125 -9.03125 7.5390625 C-9.6809375 8.02117187 -10.330625 8.50328125 -11 9 C-11.66 7.68 -12.32 6.36 -13 5 C-12.34 4.67 -11.68 4.34 -11 4 C-10.34 4.33 -9.68 4.66 -9 5 C-8.9175 4.38125 -8.835 3.7625 -8.75 3.125 C-8 1 -8 1 -6.1875 -0.3125 C-3.67700322 -1.10151327 -2.44507934 -0.87324262 0 0 Z " fill="#AE9C54" transform="translate(377,269)"/>
<path d="M0 0 C1.9375 0.625 1.9375 0.625 4 2 C4.99184231 5.58589143 5.18429132 7.44712603 4 11 C3.01 10.67 2.02 10.34 1 10 C1.33 9.01 1.66 8.02 2 7 C1.34 7 0.68 7 0 7 C-0.38133299 5.0085944 -0.71325582 3.00720923 -1 1 C-0.67 0.67 -0.34 0.34 0 0 Z " fill="#F6E283" transform="translate(282,205)"/>
<path d="M0 0 C2.2477975 2.05233685 3.0022242 3.00667261 4 6 C4.66 6 5.32 6 6 6 C6 5.34 6 4.68 6 4 C6.66 4 7.32 4 8 4 C7.34 7.96 6.68 11.92 6 16 C3.69412696 13.69412696 3.31712405 12.22901367 2.4375 9.125 C2.18871094 8.26132813 1.93992187 7.39765625 1.68359375 6.5078125 C1.09388513 4.34442431 0.53189164 2.1782229 0 0 Z " fill="#A28F4B" transform="translate(256,141)"/>
<path d="M0 0 C0.66 1.32 1.32 2.64 2 4 C-2.30769231 7.07692308 -2.30769231 7.07692308 -5.8125 6.6875 C-6.534375 6.460625 -7.25625 6.23375 -8 6 C-7.67 5.01 -7.34 4.02 -7 3 C-6.34 3 -5.68 3 -5 3 C-5 2.34 -5 1.68 -5 1 C-3.35 0.67 -1.7 0.34 0 0 Z " fill="#EFD572" transform="translate(331,405)"/>
<path d="M0 0 C0.99 0.33 1.98 0.66 3 1 C2.01 2.485 2.01 2.485 1 4 C0.34 4 -0.32 4 -1 4 C-1 4.66 -1 5.32 -1 6 C-3.31 7.32 -5.62 8.64 -8 10 C-8 8.68 -8 7.36 -8 6 C-7.01 6 -6.02 6 -5 6 C-5 5.01 -5 4.02 -5 3 C-3.35 2.67 -1.7 2.34 0 2 C0 1.34 0 0.68 0 0 Z " fill="#C0B373" transform="translate(347,288)"/>
<path d="M0 0 C1.3326971 3.99809131 0.24487052 5.57258893 -1.3125 9.4375 C-1.76238281 10.57058594 -2.21226562 11.70367187 -2.67578125 12.87109375 C-3.70587919 15.30504198 -4.77551897 17.66026395 -6 20 C-6 17.69 -6 15.38 -6 13 C-5.34 13 -4.68 13 -4 13 C-3.94392578 11.96939453 -3.94392578 11.96939453 -3.88671875 10.91796875 C-3.78810547 9.56638672 -3.78810547 9.56638672 -3.6875 8.1875 C-3.62949219 7.29417969 -3.57148438 6.40085938 -3.51171875 5.48046875 C-2.93686419 2.69396 -2.1793144 1.75864246 0 0 Z " fill="#AAA375" transform="translate(226,188)"/>
<path d="M0 0 C0.66 0 1.32 0 2 0 C2 0.99 2 1.98 2 3 C2.99 3.33 3.98 3.66 5 4 C5.73046875 5.84765625 5.73046875 5.84765625 6.1875 8.0625 C6.34605469 8.79597656 6.50460937 9.52945313 6.66796875 10.28515625 C6.83232422 11.13400391 6.83232422 11.13400391 7 12 C6.34 12 5.68 12 5 12 C5 11.01 5 10.02 5 9 C4.34 9 3.68 9 3 9 C1.01046676 7.01046676 0.02253067 5.59565478 -1 3 C-0.67 2.01 -0.34 1.02 0 0 Z " fill="#A3853F" transform="translate(266,96)"/>
<path d="M0 0 C0.33 0 0.66 0 1 0 C1.309375 1.11375 1.61875 2.2275 1.9375 3.375 C2.82326483 6.7945155 2.82326483 6.7945155 4 9 C-0.67105792 7.44298069 -4.08705685 4.91552627 -8 2 C-5.13822943 0.56911472 -3.06624227 1.40008303 0 2 C0 1.34 0 0.68 0 0 Z " fill="#AFA25C" transform="translate(356,427)"/>
<path d="M0 0 C2.60895459 2.60895459 3.10973264 4.98266538 4.1875 8.5 C4.55230469 9.6653125 4.91710937 10.830625 5.29296875 12.03125 C6 15 6 15 5 17 C2.20406217 15.60203108 2.04826223 13.86525011 1 11 C0.67 10.34 0.34 9.68 0 9 C-0.06950541 7.45976004 -0.08452357 5.91665012 -0.0625 4.375 C-0.05347656 3.55773437 -0.04445313 2.74046875 -0.03515625 1.8984375 C-0.02355469 1.27195312 -0.01195312 0.64546875 0 0 Z " fill="#B5A977" transform="translate(371,404)"/>
<path d="M0 0 C1.32 0.66 2.64 1.32 4 2 C-1.09090909 7.27272727 -1.09090909 7.27272727 -4 9 C-6.25 8.6875 -6.25 8.6875 -8 8 C-5.33333333 5.33333333 -2.66666667 2.66666667 0 0 Z " fill="#F8E586" transform="translate(331,271)"/>
<path d="M0 0 C1.65 1.32 3.3 2.64 5 4 C4.67 4.66 4.34 5.32 4 6 C1.911361 6.67375452 0.19636905 7 -2 7 C-2 6.01 -2 5.02 -2 4 C-2.66 3.67 -3.32 3.34 -4 3 C-2.68 2.01 -1.36 1.02 0 0 Z " fill="#F7DF82" transform="translate(339,265)"/>
<path d="M0 0 C2.475 0.495 2.475 0.495 5 1 C5.33 1.99 5.66 2.98 6 4 C6.804375 4.309375 7.60875 4.61875 8.4375 4.9375 C11 6 11 6 12.3125 8.125 C12.6528125 9.053125 12.6528125 9.053125 13 10 C8.5058745 8.50195817 4.51245066 6.18197815 1 3 C0.67 2.01 0.34 1.02 0 0 Z " fill="#AD9F64" transform="translate(365,438)"/>
<path d="M0 0 C1.98 0 3.96 0 6 0 C3.14723863 2.93200474 0.34920216 5.64315404 -3 8 C-3.66 7.67 -4.32 7.34 -5 7 C-4.34 5.68 -3.68 4.36 -3 3 C-2.34 3 -1.68 3 -1 3 C-0.67 2.01 -0.34 1.02 0 0 Z " fill="#B4A663" transform="translate(355,281)"/>
<path d="M0 0 C2.875 -0.1875 2.875 -0.1875 6 0 C6.66 0.99 7.32 1.98 8 3 C7.34 3 6.68 3 6 3 C6 3.66 6 4.32 6 5 C3.69 4.67 1.38 4.34 -1 4 C-0.67 2.68 -0.34 1.36 0 0 Z " fill="#BF891E" transform="translate(440,208)"/>
<path d="M0 0 C1.29971809 3.66927216 0.72399452 6.32861129 -0.1875 10.0625 C-0.42855469 11.10535156 -0.66960937 12.14820313 -0.91796875 13.22265625 C-2.12080171 16.31007225 -3.19787176 17.32336426 -6 19 C-5.1016367 14.99350621 -3.74851515 11.1353054 -2.4375 7.25 C-2.20353516 6.55261719 -1.96957031 5.85523438 -1.72851562 5.13671875 C-1.15370621 3.4240213 -0.57703725 1.71194814 0 0 Z " fill="#887C4C" transform="translate(220,126)"/>
<path d="M0 0 C2.97 0.495 2.97 0.495 6 1 C6.33 1.99 6.66 2.98 7 4 C6.34 4 5.68 4 5 4 C5 4.66 5 5.32 5 6 C3.68 6.33 2.36 6.66 1 7 C-1 4 -1 4 -0.625 1.8125 C-0.41875 1.214375 -0.2125 0.61625 0 0 Z " fill="#D5B44D" transform="translate(256,360)"/>
<path d="M0 0 C2.64 0 5.28 0 8 0 C7.01 0.495 7.01 0.495 6 1 C5.938125 1.598125 5.87625 2.19625 5.8125 2.8125 C4.4393833 6.50935266 1.47595271 7.35349608 -2 9 C-2.66 8.67 -3.32 8.34 -4 8 C-3.01 7.67 -2.02 7.34 -1 7 C-1 6.34 -1 5.68 -1 5 C1.5 3.375 1.5 3.375 4 2 C2.68 1.34 1.36 0.68 0 0 Z " fill="#947337" transform="translate(386,222)"/>
<path d="M0 0 C5.28 0 10.56 0 16 0 C16 0.33 16 0.66 16 1 C12.37 1 8.74 1 5 1 C5.66 2.32 6.32 3.64 7 5 C5.68 5 4.36 5 3 5 C3 4.34 3 3.68 3 3 C2.34 3 1.68 3 1 3 C0.67 2.01 0.34 1.02 0 0 Z " fill="#A98A40" transform="translate(34,197)"/>
<path d="M0 0 C1.4471984 4.34159519 0.48050392 7.48984482 -0.875 11.75 C-1.24625 12.4925 -1.6175 13.235 -2 14 C-2.99 14.33 -3.98 14.66 -5 15 C-1.92482916 4.44191344 -1.92482916 4.44191344 0 0 Z " fill="#908349" transform="translate(230,99)"/>
<path d="M0 0 C1.98 0.99 1.98 0.99 4 2 C3.979375 2.721875 3.95875 3.44375 3.9375 4.1875 C3.90401239 7.0030771 3.90401239 7.0030771 4.625 9.6875 C4.74875 10.450625 4.8725 11.21375 5 12 C4.34 12.66 3.68 13.32 3 14 C2.86722656 13.32453125 2.73445313 12.6490625 2.59765625 11.953125 C2.42105469 11.06109375 2.24445313 10.1690625 2.0625 9.25 C1.88847656 8.36828125 1.71445312 7.4865625 1.53515625 6.578125 C1.07631512 4.36764947 0.56663926 2.18487932 0 0 Z " fill="#F8E895" transform="translate(337,376)"/>
<path d="M0 0 C1.98 0.495 1.98 0.495 4 1 C4.125 3.875 4.125 3.875 4 7 C3.34 7.66 2.68 8.32 2 9 C0.4375 7.3125 0.4375 7.3125 -1 5 C-0.6875 2.25 -0.6875 2.25 0 0 Z " fill="#F9F1A4" transform="translate(323,329)"/>
<path d="M0 0 C-1.98 0.99 -1.98 0.99 -4 2 C-3.67 3.32 -3.34 4.64 -3 6 C-4.32 6.33 -5.64 6.66 -7 7 C-7 6.34 -7 5.68 -7 5 C-7.66 4.67 -8.32 4.34 -9 4 C-8.34 4 -7.68 4 -7 4 C-6.87625 3.360625 -6.7525 2.72125 -6.625 2.0625 C-6.41875 1.381875 -6.2125 0.70125 -6 0 C-3.50907189 -1.24546405 -2.58919267 -0.7767578 0 0 Z " fill="#C59834" transform="translate(398,223)"/>
<path d="M0 0 C0.99 0 1.98 0 3 0 C-0.07517084 11.52164009 -0.07517084 11.52164009 -2 17 C-2.33 17 -2.66 17 -3 17 C-3.19294408 12.17639811 -2.75747614 8.50353262 -1 4 C-0.34 4 0.32 4 1 4 C0.67 2.68 0.34 1.36 0 0 Z " fill="#9F9861" transform="translate(232,166)"/>
<path d="M0 0 C0.33 0 0.66 0 1 0 C1.15384615 6.76923077 1.15384615 6.76923077 0 10 C-0.66 10.66 -1.32 11.32 -2 12 C-2.66 8.7 -3.32 5.4 -4 2 C-3.01 2 -2.02 2 -1 2 C-0.67 1.34 -0.34 0.68 0 0 Z " fill="#F8E285" transform="translate(237,150)"/>
<path d="M0 0 C2.4375 0.8125 2.4375 0.8125 5 2 C6 5 6 5 6 8 C2.34683329 6.75023244 1.21934164 6.32901247 -1 3 C-0.67 2.01 -0.34 1.02 0 0 Z " fill="#A98A3B" transform="translate(251,359)"/>
<path d="M0 0 C2.37616467 2.37616467 3.04068181 4.35349521 4.1875 7.5 C4.55230469 8.4796875 4.91710937 9.459375 5.29296875 10.46875 C6 13 6 13 5 15 C3 12 3 12 3 9 C1.68 8.34 0.36 7.68 -1 7 C-0.67 4.69 -0.34 2.38 0 0 Z " fill="#937B39" transform="translate(273,110)"/>
<path d="M0 0 C0.66 0 1.32 0 2 0 C2.99 3.3 3.98 6.6 5 10 C4.01 10 3.02 10 2 10 C-0.4375 4.15 -0.4375 4.15 -1 1 C-0.67 0.67 -0.34 0.34 0 0 Z " fill="#98772F" transform="translate(259,73)"/>
<path d="M0 0 C2 1 2 1 2.8515625 2.890625 C5.41509434 10.71069182 5.41509434 10.71069182 5 15 C1.10815152 10.57744491 0 5.80705928 0 0 Z " fill="#F6EDA3" transform="translate(359,371)"/>
<path d="M0 0 C2.97 1.65 5.94 3.3 9 5 C8.34 6.32 7.68 7.64 7 9 C4.06633939 6.97678579 1.93849251 5.00466339 0 2 C0 1.34 0 0.68 0 0 Z " fill="#BEA961" transform="translate(256,334)"/>
<path d="M0 0 C0.99 0.33 1.98 0.66 3 1 C2.51171875 7.0546875 2.51171875 7.0546875 2 9 C1.01 9.66 0.02 10.32 -1 11 C-1.125 3.375 -1.125 3.375 0 0 Z " fill="#FBEFA2" transform="translate(204,175)"/>
<path d="M0 0 C0.66 0.33 1.32 0.66 2 1 C2 3.31 2 5.62 2 8 C1.67 7.34 1.34 6.68 1 6 C0.01 6 -0.98 6 -2 6 C-2.33 7.32 -2.66 8.64 -3 10 C-3.33 9.34 -3.66 8.68 -4 8 C-1.48571429 1.48571429 -1.48571429 1.48571429 0 0 Z " fill="#7E6431" transform="translate(250,46)"/>
<path d="M0 0 C4.75 0.875 4.75 0.875 7 2 C6.67 3.65 6.34 5.3 6 7 C1.125 3.375 1.125 3.375 0 0 Z " fill="#F8E996" transform="translate(337,314)"/>
<path d="M0 0 C4.28477792 2.30718811 7.72291137 4.32966073 11 8 C9.68 8 8.36 8 7 8 C7 7.34 7 6.68 7 6 C5.68 6.33 4.36 6.66 3 7 C2.87625 6.360625 2.7525 5.72125 2.625 5.0625 C2.315625 4.0415625 2.315625 4.0415625 2 3 C1.34 2.67 0.68 2.34 0 2 C0 1.34 0 0.68 0 0 Z " fill="#9F9058" transform="translate(306,367)"/>
<path d="M0 0 C2.16874252 0.50603992 3.99967627 0.99983813 6 2 C6 3.32 6 4.64 6 6 C4.68 6 3.36 6 2 6 C1.34 4.02 0.68 2.04 0 0 Z M6 1 C8 2 8 2 8 2 Z " fill="#FBE389" transform="translate(336,288)"/>
<path d="M0 0 C4.29 0 8.58 0 13 0 C10 3 10 3 6.5 3.375 C3 3 3 3 0 0 Z " fill="#D9B559" transform="translate(110,197)"/>
<path d="M0 0 C3.63 0 7.26 0 11 0 C7 2 7 2 4.75 1.625 C4.1725 1.41875 3.595 1.2125 3 1 C3 1.99 3 2.98 3 4 C4.32 4.33 5.64 4.66 7 5 C5.68 5.33 4.36 5.66 3 6 C0 2.25 0 2.25 0 0 Z " fill="#C59C33" transform="translate(39,198)"/>
<path d="M0 0 C0.66 0.33 1.32 0.66 2 1 C1.71758359 2.46015291 1.42373386 3.91809793 1.125 5.375 C0.96257812 6.18710938 0.80015625 6.99921875 0.6328125 7.8359375 C0 10 0 10 -2 12 C-3.3451087 5.42391304 -3.3451087 5.42391304 -2 2 C-1.34 1.34 -0.68 0.68 0 0 Z " fill="#B8A159" transform="translate(246,128)"/>
<path d="M0 0 C2.79724672 2.01052108 3.15065585 4.18168077 4 7.4375 C0.59679258 6.42573563 -0.75725331 5.78906418 -2.8125 2.8125 C-3.204375 2.02875 -3.59625 1.245 -4 0.4375 C-2 -0.5625 -2 -0.5625 0 0 Z " fill="#C5B76C" transform="translate(362,432.5625)"/>
<path d="M0 0 C1.32 0 2.64 0 4 0 C5.4783226 2.95664519 5.06032783 5.74229737 5 9 C4.34 9 3.68 9 3 9 C2.01 6.03 1.02 3.06 0 0 Z " fill="#D4C98A" transform="translate(366,397)"/>
<path d="M0 0 C1.423125 0.2784375 1.423125 0.2784375 2.875 0.5625 C5.89868793 1.28686632 5.89868793 1.28686632 8 0 C8.66 2.31 9.32 4.62 10 7 C9.34 7 8.68 7 8 7 C8 6.34 8 5.68 8 5 C7.4225 4.9175 6.845 4.835 6.25 4.75 C3.3840696 3.79468987 2.0009236 2.21530827 0 0 Z " fill="#8B773B" transform="translate(287,387)"/>
<path d="M0 0 C2.98704569 0.49784095 4.39324263 1.26216175 7 3 C7 3.66 7 4.32 7 5 C4.6875 5.25 4.6875 5.25 2 5 C0.1875 3 0.1875 3 -1 1 C-0.67 0.67 -0.34 0.34 0 0 Z " fill="#CABF77" transform="translate(328,383)"/>
<path d="M0 0 C-0.66 2.31 -1.32 4.62 -2 7 C-2.99 7 -3.98 7 -5 7 C-5.33 5.68 -5.66 4.36 -6 3 C-2.25 0 -2.25 0 0 0 Z " fill="#D7B95A" transform="translate(373,240)"/>
<path d="M0 0 C1.90389849 2.85584773 2.69462177 4.9311762 3.625 8.1875 C4.01558594 9.53908203 4.01558594 9.53908203 4.4140625 10.91796875 C4.60742188 11.60503906 4.80078125 12.29210937 5 13 C4.34 12.67 3.68 12.34 3 12 C3 11.01 3 10.02 3 9 C2.01 9 1.02 9 0 9 C0 6.03 0 3.06 0 0 Z " fill="#928146" transform="translate(299,182)"/>
<path d="M0 0 C2.70931419 0.15481795 4.46584039 0.48172081 6.4453125 2.40234375 C7.67679642 3.89771708 8.8429837 5.4462924 10 7 C7.6875 7.3125 7.6875 7.3125 5 7 C3.3125 4.625 3.3125 4.625 2 2 C1.34 1.34 0.68 0.68 0 0 Z " fill="#BA9139" transform="translate(48,207)"/>
<path d="M0 0 C2.31 0 4.62 0 7 0 C7 0.99 7 1.98 7 3 C5.35 3.66 3.7 4.32 2 5 C1.34 3.35 0.68 1.7 0 0 Z " fill="#F2D670" transform="translate(280,355)"/>
<path d="M0 0 C5.75 1.875 5.75 1.875 8 3 C7.67 3.66 7.34 4.32 7 5 C4.125 4.6875 4.125 4.6875 1 4 C0.34 3.01 -0.32 2.02 -1 1 C-0.67 0.67 -0.34 0.34 0 0 Z " fill="#B9A968" transform="translate(280,351)"/>
<path d="M0 0 C0.66 1.65 1.32 3.3 2 5 C-0.31 4.67 -2.62 4.34 -5 4 C-5 3.01 -5 2.02 -5 1 C-3 0 -3 0 0 0 Z " fill="#ECCD6D" transform="translate(271,344)"/>
<path d="M0 0 C0.66 0.33 1.32 0.66 2 1 C1.875 2.875 1.875 2.875 1 5 C-1.9375 6.3125 -1.9375 6.3125 -5 7 C-5.66 6.67 -6.32 6.34 -7 6 C-4.69 4.02 -2.38 2.04 0 0 Z " fill="#9F9556" transform="translate(335,266)"/>
<path d="M0 0 C0.99 0 1.98 0 3 0 C1.9024777 2.99324263 1.32317108 3.84610901 -1.625 5.25 C-2.40875 5.4975 -3.1925 5.745 -4 6 C-4 6.66 -4 7.32 -4 8 C-4.66 7.67 -5.32 7.34 -6 7 C-5.67 6.01 -5.34 5.02 -5 4 C-4.01 4 -3.02 4 -2 4 C-2 3.34 -2 2.68 -2 2 C-1.34 2 -0.68 2 0 2 C0 1.34 0 0.68 0 0 Z " fill="#8A7137" transform="translate(392,253)"/>
<path d="M0 0 C1.125 1.75 1.125 1.75 2 4 C1.3125 6.1875 1.3125 6.1875 0 8 C-0.99 8.33 -1.98 8.66 -3 9 C-2.69181644 7.68647977 -2.37832335 6.37420428 -2.0625 5.0625 C-1.88847656 4.33160156 -1.71445313 3.60070312 -1.53515625 2.84765625 C-1 1 -1 1 0 0 Z " fill="#B8AC6D" transform="translate(214,145)"/>
<path d="M0 0 C0.66 0 1.32 0 2 0 C1.65930765 3.15140423 1.41923159 4.60781561 -0.9375 6.8125 C-3 8 -3 8 -5 8 C-5 7.01 -5 6.02 -5 5 C-4.01 5 -3.02 5 -2 5 C-2 4.34 -2 3.68 -2 3 C-1.34 3 -0.68 3 0 3 C0 2.01 0 1.02 0 0 Z " fill="#A48C47" transform="translate(383,259)"/>
<path d="M0 0 C2.375 0.1875 2.375 0.1875 5 1 C6.3125 3.5625 6.3125 3.5625 7 6 C2.32307692 4.52307692 2.32307692 4.52307692 0.6875 1.875 C0.460625 1.25625 0.23375 0.6375 0 0 Z " fill="#A48343" transform="translate(262,369)"/>
<path d="M0 0 C2.1519437 3.22791555 2.20086443 4.28400809 2 8 C0.68 7.34 -0.64 6.68 -2 6 C-1.34 4.02 -0.68 2.04 0 0 Z " fill="#FAEAA2" transform="translate(346,327)"/>
<path d="M0 0 C1.32 0.99 2.64 1.98 4 3 C3.34 3 2.68 3 2 3 C2.66 4.32 3.32 5.64 4 7 C2.68 7 1.36 7 0 7 C0 4.69 0 2.38 0 0 Z " fill="#F8F0A4" transform="translate(315,305)"/>
<path d="M0 0 C0.66 0.33 1.32 0.66 2 1 C2 1.66 2 2.32 2 3 C1.01 3 0.02 3 -1 3 C-1.33 3.99 -1.66 4.98 -2 6 C-3.65 6 -5.3 6 -7 6 C-4.74259377 3.66475218 -2.7194239 1.81294927 0 0 Z " fill="#B6A770" transform="translate(327,273)"/>
<path d="M0 0 C2.475 0.99 2.475 0.99 5 2 C5 1.34 5 0.68 5 0 C6.32 0.33 7.64 0.66 9 1 C4.25 5 4.25 5 2 5 C1.34 3.35 0.68 1.7 0 0 Z " fill="#8B6828" transform="translate(403,241)"/>
<path d="M0 0 C1.65 0 3.3 0 5 0 C4.5359375 1.1446875 4.5359375 1.1446875 4.0625 2.3125 C3.32106407 4.18789677 2.63771783 6.08684652 2 8 C0.23537317 4.91190305 0 3.76687864 0 0 Z " fill="#BAAD6A" transform="translate(283,215)"/>
<path d="M0 0 C0.66 0 1.32 0 2 0 C2 0.66 2 1.32 2 2 C2.66 2 3.32 2 4 2 C4.33 1.34 4.66 0.68 5 0 C5 0.99 5 1.98 5 3 C5.66 3.33 6.32 3.66 7 4 C5.35 4.66 3.7 5.32 2 6 C1.34 4.02 0.68 2.04 0 0 Z " fill="#9D7929" transform="translate(456,198)"/>
<path d="M0 0 C2.39763185 2.39763185 2.34280586 3.33273498 2.625 6.625 C2.69976562 7.44226563 2.77453125 8.25953125 2.8515625 9.1015625 C2.90054687 9.72804687 2.94953125 10.35453125 3 11 C0.82905523 8.82905523 0.5137 7.84247144 -0.1875 4.9375 C-0.36667969 4.22464844 -0.54585938 3.51179687 -0.73046875 2.77734375 C-0.81941406 2.19082031 -0.90835937 1.60429687 -1 1 C-0.67 0.67 -0.34 0.34 0 0 Z " fill="#A89C60" transform="translate(276,193)"/>
<path d="M0 0 C0.82638376 2.89234315 1 4.88742431 1 8 C0.01 8 -0.98 8 -2 8 C-2.33 8.99 -2.66 9.98 -3 11 C-2.44894091 7.0507432 -1.61064629 3.65079826 0 0 Z " fill="#86773D" transform="translate(234,88)"/>
<path d="M0 0 C1 3 1 3 0 6 C-0.99 6 -1.98 6 -3 6 C-3.33 6.66 -3.66 7.32 -4 8 C-3.6875 5.125 -3.6875 5.125 -3 2 C-2.01 1.34 -1.02 0.68 0 0 Z " fill="#A88E42" transform="translate(239,80)"/>
<path d="M0 0 C2 2 2 2 2.125 4.625 C2.08375 5.40875 2.0425 6.1925 2 7 C1.34 7 0.68 7 0 7 C-0.33 7.66 -0.66 8.32 -1 9 C-1.09765625 2.84765625 -1.09765625 2.84765625 -1 1 C-0.67 0.67 -0.34 0.34 0 0 Z " fill="#C69732" transform="translate(255,63)"/>
<path d="M0 0 C2.42130331 2.42130331 2.52840504 3.80111377 3.125 7.125 C3.29257812 8.03507812 3.46015625 8.94515625 3.6328125 9.8828125 C3.81457031 10.93082031 3.81457031 10.93082031 4 12 C1 10 1 10 0.48828125 7.6171875 C0.40126953 6.25980469 0.40126953 6.25980469 0.3125 4.875 C0.24675781 3.96492188 0.18101562 3.05484375 0.11328125 2.1171875 C0.07589844 1.41851562 0.03851563 0.71984375 0 0 Z " fill="#7C7344" transform="translate(382,438)"/>
<path d="M0 0 C2.875 0.25 2.875 0.25 6 1 C7.375 3.0625 7.375 3.0625 8 5 C4.62496331 3.8141763 2.35277269 2.72426311 0 0 Z " fill="#8F7C41" transform="translate(269,375)"/>
<path d="M0 0 C0.99 0 1.98 0 3 0 C2.67 1.98 2.34 3.96 2 6 C2.66 6 3.32 6 4 6 C3.67 6.99 3.34 7.98 3 9 C2.34 8.67 1.68 8.34 1 8 C0.40644386 5.35139573 0.25790731 2.70802678 0 0 Z " fill="#FAEFA0" transform="translate(312,296)"/>
<path d="M0 0 C0.33 0.66 0.66 1.32 1 2 C0.34 2 -0.32 2 -1 2 C-1 3.32 -1 4.64 -1 6 C-4 5 -4 5 -6 3 C-3.8614515 0.8614515 -2.86724686 0.57344937 0 0 Z " fill="#C6B164" transform="translate(352,255)"/>
<path d="M0 0 C0.33 0.99 0.66 1.98 1 3 C1.66 3.33 2.32 3.66 3 4 C3 4.66 3 5.32 3 6 C1 7.625 1 7.625 -1 9 C-2.25541557 5.23375329 -1.37061958 3.62811066 0 0 Z " fill="#C2B673" transform="translate(210,154)"/>
<path d="M0 0 C0.33 0.66 0.66 1.32 1 2 C1.66 2 2.32 2 3 2 C3 3.32 3 4.64 3 6 C1.68 6 0.36 6 -1 6 C-1.042721 4.33388095 -1.04063832 2.66617115 -1 1 C-0.67 0.67 -0.34 0.34 0 0 Z " fill="#F7E07B" transform="translate(365,432)"/>
<path d="M0 0 C1.65 0 3.3 0 5 0 C5.33 1.65 5.66 3.3 6 5 C3.5625 4.1875 3.5625 4.1875 1 3 C0.67 2.01 0.34 1.02 0 0 Z " fill="#BBA965" transform="translate(335,418)"/>
<path d="M0 0 C0.99 0.33 1.98 0.66 3 1 C3 3.64 3 6.28 3 9 C0.23776722 6.23776722 0.42143709 3.79293383 0 0 Z " fill="#ACA26B" transform="translate(336,379)"/>
<path d="M0 0 C0.99 0.33 1.98 0.66 3 1 C1.35 2.65 -0.3 4.3 -2 6 C-2.66 5.01 -3.32 4.02 -4 3 C-2.1875 1.4375 -2.1875 1.4375 0 0 Z " fill="#F9EDA0" transform="translate(313,285)"/>
<path d="M0 0 C0.33 0.66 0.66 1.32 1 2 C-1 5 -1 5 -3.625 5.6875 C-4.800625 5.8421875 -4.800625 5.8421875 -6 6 C-6 5.34 -6 4.68 -6 4 C-4.03852126 2.61061923 -2.03833424 1.2739589 0 0 Z " fill="#988344" transform="translate(364,244)"/>
<path d="M0 0 C0.99 0.33 1.98 0.66 3 1 C2.34 2.65 1.68 4.3 1 6 C0.34 6 -0.32 6 -1 6 C-1.042721 4.33388095 -1.04063832 2.66617115 -1 1 C-0.67 0.67 -0.34 0.34 0 0 Z " fill="#EAD16F" transform="translate(266,160)"/>
<path d="M0 0 C1.39195915 4.17587745 -0.17676781 6.13474776 -2 10 C-2.66 9.01 -3.32 8.02 -4 7 C-3.67 6.01 -3.34 5.02 -3 4 C-2.34 4 -1.68 4 -1 4 C-0.67 2.68 -0.34 1.36 0 0 Z " fill="#99884C" transform="translate(243,141)"/>
<path d="M0 0 C1.64350079 3.28700157 2.41321669 5.47930015 3 9 C2.01 9 1.02 9 0 9 C0 6.03 0 3.06 0 0 Z " fill="#968D60" transform="translate(339,300)"/>
<path d="M0 0 C0.66 0 1.32 0 2 0 C0.63016497 3.16115776 0.0109362 3.9927092 -3 6 C-3.33 4.68 -3.66 3.36 -4 2 C-3.34 1.67 -2.68 1.34 -2 1 C-1.34 1.33 -0.68 1.66 0 2 C0 1.34 0 0.68 0 0 Z " fill="#B6A561" transform="translate(368,272)"/>
<path d="M0 0 C1.32 0.33 2.64 0.66 4 1 C2.35 2.65 0.7 4.3 -1 6 C-1.33 4.68 -1.66 3.36 -2 2 C-1.34 2 -0.68 2 0 2 C0 1.34 0 0.68 0 0 Z " fill="#855A1F" transform="translate(432,221)"/>
<path d="M0 0 C0.99 0.33 1.98 0.66 3 1 C2.25 5.75 2.25 5.75 0 8 C-1.125 2.25 -1.125 2.25 0 0 Z " fill="#E9D479" transform="translate(241,137)"/>
</svg>
